<?xml version="1.0" standalone="no"?>
<!DOCTYPE svg PUBLIC "-//W3C//DTD SVG 20010904//EN"
 "http://www.w3.org/TR/2001/REC-SVG-20010904/DTD/svg10.dtd">
<svg version="1.0" xmlns="http://www.w3.org/2000/svg"
 width="474.000000pt" height="670.000000pt" viewBox="0 0 474.000000 670.000000"
 preserveAspectRatio="xMidYMid meet">

<g transform="translate(0.000000,670.000000) scale(0.100000,-0.100000)"
fill="#000000" stroke="none">
<path d="M0 3350 l0 -3350 2370 0 2370 0 0 3350 0 3350 -2370 0 -2370 0 0
-3350z m2220 3300 c0 -11 5 -20 11 -20 5 0 7 6 3 13 -4 6 2 3 14 -7 18 -16 27
-17 46 -8 23 10 23 10 22 -44 -1 -40 2 -54 14 -58 13 -3 -32 -10 -51 -8 -4 1
-5 -6 -2 -16 2 -9 -3 -26 -11 -37 -14 -19 -15 -18 -22 23 -7 42 -7 42 -50 42
-24 0 -44 5 -44 10 0 6 3 10 8 10 4 0 20 10 36 23 26 21 27 25 18 60 -6 22 -7
37 -1 37 5 0 9 -9 9 -20z m1578 -49 c19 10 37 17 40 15 2 -2 -4 -18 -12 -35
-21 -40 -21 -41 16 -80 24 -25 27 -32 12 -28 -70 19 -72 19 -97 -24 -26 -43
-37 -37 -37 21 0 28 -3 30 -51 36 -39 5 -47 9 -35 16 10 5 24 7 32 4 10 -4 12
-2 8 6 -5 8 -2 9 10 5 9 -4 15 -3 11 2 -3 5 -1 11 5 13 7 2 7 20 1 52 l-9 49
35 -35 35 -35 36 18z m-1423 -79 c-3 -3 -11 0 -18 7 -9 10 -8 11 6 5 10 -3 15
-9 12 -12z m-1917 -162 l42 19 -25 -44 c-16 -26 -22 -46 -16 -49 6 -4 20 -20
32 -37 20 -29 21 -31 3 -26 -71 20 -78 19 -99 -19 -16 -31 -20 -33 -26 -17 -4
10 -8 30 -8 45 -1 22 -7 29 -28 34 -66 14 -70 20 -23 36 l45 15 -3 49 -3 49
33 -37 33 -37 43 19z m1040 -72 c6 -13 23 -9 49 12 38 30 45 25 27 -19 l-16
-40 34 -30 c31 -29 32 -30 10 -31 -12 0 -25 7 -28 15 -5 12 -9 11 -26 -5 -12
-11 -25 -17 -29 -15 -4 3 -11 -5 -14 -17 -7 -20 -8 -19 -21 12 -13 31 -16 32
-54 26 -50 -8 -51 3 -4 29 32 17 35 23 31 50 -3 16 -9 39 -13 50 -6 18 -4 17
22 -5 16 -14 30 -28 32 -32z m1580 -53 c17 -5 32 -12 32 -15 0 -3 -15 -12 -33
-21 -28 -14 -32 -21 -35 -60 l-3 -44 -28 34 c-27 32 -30 33 -61 23 -58 -21
-64 -15 -31 27 l31 39 -26 32 c-15 17 -25 33 -22 35 2 2 21 -1 41 -7 31 -10
40 -9 55 5 10 10 22 14 25 10 4 -3 8 0 8 8 1 8 4 -2 8 -21 5 -29 12 -37 39
-45z m-701 -139 c-8 -8 -17 -12 -21 -9 -3 3 2 12 12 19 22 16 29 9 9 -10z
m2202 -88 c23 12 41 20 41 17 0 -2 -9 -20 -21 -39 l-21 -36 31 -31 c17 -17 31
-33 31 -35 0 -3 -19 -2 -43 1 -43 7 -43 7 -62 -36 l-19 -42 -11 44 c-10 42
-13 44 -58 53 l-47 9 37 22 c36 20 38 23 36 69 l-1 48 33 -32 34 -33 40 21z
m-2604 -6 c-1 -46 -10 -62 -36 -62 -11 0 -17 5 -14 10 3 6 -1 10 -9 10 -9 0
-16 -4 -16 -8 0 -5 -13 -7 -30 -4 -19 3 -30 0 -30 -8 0 -7 7 -10 15 -6 8 3 15
1 15 -4 0 -6 -13 -10 -29 -10 -28 0 -29 1 -18 30 6 17 19 33 29 36 10 3 18 12
18 20 0 8 8 14 18 15 26 1 65 9 71 14 12 12 17 2 16 -33z m-115 4 c0 -11 -19
-15 -25 -6 -3 5 1 10 9 10 9 0 16 -2 16 -4z m-116 -32 c4 -12 2 -15 -9 -10
-23 8 -39 -29 -20 -48 18 -17 19 -26 4 -26 -14 0 -168 -61 -206 -82 -18 -10
-38 -16 -45 -14 -7 1 -9 1 -5 -2 4 -2 -14 -25 -41 -51 -54 -52 -93 -125 -117
-223 -17 -65 -17 -65 -69 -87 -49 -20 -136 -93 -136 -113 0 -5 -7 -2 -16 6
-22 23 -51 20 -58 -6 -7 -22 -7 -22 -15 -3 -15 37 90 160 164 191 28 11 35 21
45 66 22 91 60 159 130 228 67 67 161 126 187 116 8 -3 11 -2 8 4 -3 5 24 18
61 30 77 23 88 25 54 5 -14 -8 -19 -14 -12 -15 6 0 20 8 31 19 17 17 36 28 52
30 4 1 10 -6 13 -15z m63 -10 c-3 -3 -12 -4 -19 -1 -8 3 -5 6 6 6 11 1 17 -2
13 -5z m1268 -14 c3 -5 2 -10 -4 -10 -5 0 -13 5 -16 10 -3 6 -2 10 4 10 5 0
13 -4 16 -10z m535 -35 c29 -30 43 -31 86 -4 39 24 40 22 19 -28 l-16 -37 37
-31 36 -30 -44 3 -45 4 -19 -48 -20 -48 -13 47 c-14 47 -14 47 -58 47 -29 0
-42 4 -38 11 4 6 14 8 22 5 8 -3 11 -2 8 3 -3 5 4 16 16 25 21 14 21 16 6 60
-18 52 -11 58 23 21z m-466 -34 c3 -4 -3 -16 -13 -25 -22 -20 -40 -4 -21 19
14 17 26 19 34 6z m-2148 -58 c13 -37 11 -53 -6 -53 -5 0 -7 7 -4 15 4 8 1 15
-5 15 -6 0 -11 -4 -11 -10 0 -5 -8 -10 -18 -10 -10 0 -23 -5 -29 -11 -12 -12
-53 -3 -53 12 0 5 20 9 45 9 34 0 45 4 45 16 0 8 4 13 8 10 5 -3 6 9 4 27 -6
40 7 29 24 -20z m2178 31 c9 -23 8 -24 -14 -24 -19 0 -27 20 -13 33 11 11 20
8 27 -9z m-649 -4 c39 -6 84 -15 100 -20 17 -5 57 -17 90 -26 80 -23 232 -98
330 -164 74 -50 255 -223 255 -245 0 -5 13 -23 29 -40 45 -48 193 -346 179
-361 -3 -2 -29 21 -59 52 -76 78 -109 101 -120 83 -7 -11 -11 -10 -24 8 -9 13
-31 25 -53 29 -26 5 -49 20 -78 51 -36 39 -49 46 -90 51 -28 3 -62 15 -79 28
-27 20 -95 54 -137 67 -9 3 -22 -1 -29 -9 -7 -8 -18 -13 -25 -10 -7 3 -14 1
-16 -3 -2 -5 -23 -12 -47 -16 -38 -6 -43 -5 -38 9 8 20 -7 21 -23 1 -7 -8 -22
-15 -34 -16 -22 0 -44 -14 -139 -87 -31 -23 -61 -41 -68 -40 -14 4 -23 -13
-49 -97 -19 -62 -49 -216 -50 -254 0 -36 13 6 35 113 34 162 50 195 127 251
64 48 117 79 123 73 2 -2 -14 -22 -36 -45 -21 -23 -39 -38 -39 -32 0 6 -4 7
-10 4 -23 -14 -2 -326 23 -352 10 -9 9 16 -3 78 -6 30 -11 91 -11 137 0 83 0
84 42 139 24 30 52 61 64 68 25 16 153 29 169 17 6 -5 32 -16 58 -26 57 -21
71 -37 25 -27 -35 8 -93 0 -86 -11 5 -10 -28 -32 -70 -47 -27 -9 -36 -8 -42 1
-11 17 -42 -25 -70 -92 -12 -30 -29 -61 -37 -67 -13 -11 -14 -20 -2 -70 17
-77 69 -213 81 -213 11 0 12 13 0 25 -14 16 -61 165 -61 196 0 38 27 107 59
147 18 22 49 42 95 61 61 24 74 26 113 17 42 -9 44 -11 37 -40 -11 -50 -35
-93 -60 -107 -13 -7 -26 -20 -29 -30 -4 -10 -16 -26 -28 -36 -29 -23 -81 -92
-75 -99 3 -2 17 11 32 31 32 41 68 76 73 71 2 -2 -3 -44 -11 -92 -19 -104 -19
-104 -8 -104 5 0 14 33 20 74 6 40 19 88 28 107 10 19 20 41 24 49 10 23 118
59 178 59 29 1 68 7 87 15 20 9 60 14 95 12 50 -1 63 -6 76 -24 9 -13 54 -48
99 -78 46 -30 86 -63 89 -72 17 -58 27 -106 31 -148 3 -27 8 -60 10 -74 3 -14
1 -59 -5 -100 -6 -41 -13 -99 -15 -129 -7 -68 -21 -133 -40 -177 -8 -19 -15
-38 -16 -42 -4 -21 -21 -42 -31 -36 -6 4 -8 3 -5 -3 4 -6 -2 -28 -13 -49 -10
-22 -19 -34 -20 -27 0 7 -7 10 -15 7 -11 -5 -13 -2 -9 10 3 9 10 14 14 11 4
-3 10 4 13 15 5 18 2 18 -25 -5 -16 -14 -38 -25 -49 -25 -16 0 -18 -2 -7 -14
7 -7 20 -12 28 -10 8 2 -2 -4 -22 -14 -21 -9 -43 -27 -49 -40 -9 -15 -18 -20
-31 -16 -13 4 -16 1 -12 -10 3 -9 1 -16 -5 -16 -6 0 -11 5 -11 11 0 6 -7 8
-16 5 -13 -5 -15 -1 -10 21 4 16 15 35 24 43 20 17 33 44 38 78 1 13 8 30 14
37 8 9 8 15 0 20 -5 3 -10 19 -10 35 0 16 -4 31 -9 35 -6 3 -8 -10 -5 -30 4
-37 -8 -47 -24 -19 -6 10 -14 14 -22 9 -8 -5 -5 -11 12 -19 16 -8 23 -20 23
-41 0 -20 -5 -29 -14 -27 -10 2 -12 -4 -7 -22 5 -19 3 -24 -8 -20 -8 3 -16 -3
-19 -16 -6 -23 -27 -19 -27 6 0 8 -9 23 -20 34 -11 11 -20 31 -20 44 0 14 -4
27 -9 30 -5 3 -5 21 -1 38 21 91 21 95 1 53 -11 -22 -20 -51 -21 -65 -1 -23
-2 -23 -10 -5 -5 11 -9 34 -10 50 -1 29 -2 29 -11 6 -6 -15 -6 -28 0 -35 5 -6
11 -25 13 -41 2 -17 11 -36 22 -44 17 -13 17 -15 2 -23 -9 -5 -22 -6 -29 -1
-6 4 -25 8 -42 9 -16 1 -47 5 -68 9 -23 4 -43 3 -48 -2 -7 -7 -1 -10 18 -10
59 0 116 -18 119 -37 1 -10 6 -21 9 -24 4 -4 5 2 3 12 -2 14 4 22 22 26 36 10
55 -4 74 -49 19 -48 12 -71 -21 -71 -13 0 -22 4 -19 9 3 5 -5 8 -19 7 -38 -2
-30 -13 15 -21 22 -4 40 -9 40 -11 0 -13 -41 -82 -54 -94 -10 -7 -14 -21 -11
-31 4 -12 -1 -19 -15 -24 -29 -9 -33 -3 -20 30 6 15 8 30 5 33 -3 3 -5 0 -5
-6 0 -7 -5 -12 -11 -12 -6 0 -8 9 -4 21 5 15 4 19 -4 15 -6 -4 -11 -18 -11
-32 0 -14 4 -23 9 -20 5 4 7 -3 4 -14 -3 -11 -10 -20 -15 -20 -5 0 -6 5 -2 12
4 7 3 8 -5 4 -6 -4 -9 -12 -6 -17 4 -5 1 -9 -4 -9 -6 0 -11 -11 -11 -25 0 -14
-4 -25 -10 -25 -11 0 -8 35 3 46 4 4 -14 29 -39 56 -32 34 -44 55 -41 69 3 10
1 19 -5 19 -6 0 -8 17 -6 40 2 27 0 40 -9 40 -6 0 -13 11 -15 25 l-3 25 -12
-25 c-6 -14 -7 -23 -3 -20 14 9 30 -31 30 -74 0 -45 -11 -51 -50 -25 l-25 16
23 -21 c15 -13 21 -25 16 -33 -6 -10 -4 -10 9 0 14 12 16 11 15 -10 -1 -42
-10 -78 -18 -73 -5 3 -19 25 -33 49 -18 32 -22 47 -14 55 8 8 8 11 -1 11 -7 0
-12 -5 -12 -11 0 -5 -4 -8 -10 -4 -9 5 -3 34 9 45 3 3 14 20 24 38 14 25 16
36 7 47 -8 10 -8 15 1 21 8 4 9 3 5 -4 -4 -7 -2 -12 4 -12 7 0 10 6 8 12 -5
14 15 38 31 38 6 0 10 16 9 35 -1 19 -6 35 -11 35 -5 0 -7 -13 -5 -29 2 -17 1
-28 -3 -25 -5 2 -13 -5 -19 -16 -6 -11 -24 -27 -41 -36 -30 -15 -30 -15 -18 8
25 48 51 78 61 71 8 -4 9 0 5 11 -4 11 1 28 13 43 24 31 25 41 3 39 -11 -1
-20 11 -28 37 l-11 38 -14 -28 c-8 -15 -22 -40 -32 -54 -10 -14 -15 -29 -12
-32 8 -8 -36 -88 -45 -82 -9 5 2 49 19 86 5 9 4 22 -1 30 -7 11 -9 9 -9 -8 0
-14 -6 -23 -15 -23 -16 0 -21 -16 -6 -22 5 -2 5 -13 0 -27 -12 -30 -29 -17
-58 42 -24 49 -28 37 -6 -18 9 -20 13 -45 10 -55 -5 -16 -8 -15 -35 8 -17 15
-30 33 -30 42 -1 13 -2 13 -13 0 -7 -8 -21 -17 -31 -18 -17 -3 -18 -2 -7 12 7
9 17 13 22 10 15 -9 10 7 -11 33 -11 14 -20 21 -20 16 0 -5 5 -14 12 -21 8 -8
8 -15 -1 -25 -17 -22 -49 -28 -47 -9 0 8 -5 16 -12 18 -7 1 -8 0 -2 -3 6 -3 4
-11 -5 -20 -11 -11 -26 -13 -50 -9 -33 7 -39 15 -38 54 1 10 -2 10 -13 1 -10
-8 -14 -8 -14 0 0 10 5 12 37 15 17 2 63 44 63 58 0 9 -2 10 -8 2 -4 -7 -25
-19 -47 -28 -30 -12 -35 -12 -22 -2 10 8 14 17 9 20 -10 6 -25 -9 -35 -35 -5
-17 -55 -35 -65 -24 -7 7 38 118 52 127 6 4 8 8 3 8 -4 0 2 18 13 40 25 49 12
54 -14 5 -10 -19 -23 -32 -27 -29 -5 3 -9 -6 -9 -19 0 -31 -20 -87 -30 -87 -5
0 -13 6 -17 13 -4 6 -17 19 -28 27 -19 14 -19 14 -5 -5 8 -11 23 -28 34 -37
15 -15 16 -20 6 -33 -15 -18 -37 -20 -43 -2 -3 6 -6 3 -6 -8 -1 -22 -36 -49
-52 -40 -5 4 -8 1 -7 -7 2 -7 -3 -12 -10 -10 -8 1 -11 -1 -8 -6 2 -4 1 -14 -4
-22 -6 -10 -14 -7 -34 16 -14 16 -23 35 -21 42 6 15 -7 16 -23 0 -7 -7 -12 -8
-12 -2 0 20 18 34 40 32 13 -2 25 3 28 12 4 12 3 13 -10 3 -15 -13 -28 -8 -28
10 0 5 13 7 30 4 16 -4 32 -2 35 3 3 6 -1 10 -9 10 -19 0 -20 5 -6 31 6 11 21
19 35 19 13 0 27 5 30 10 3 6 -3 10 -14 10 -20 0 -20 0 1 40 12 22 23 38 26
36 6 -7 62 15 62 24 0 4 -9 6 -20 3 -12 -3 -20 0 -20 6 0 7 4 9 10 6 5 -3 18
-1 27 4 20 11 12 14 -30 11 l-28 -2 16 39 c9 21 23 48 31 60 16 26 18 43 4 43
-5 0 -7 -6 -4 -13 2 -7 -11 -28 -31 -47 -23 -22 -31 -36 -24 -41 7 -4 9 -14 6
-24 -11 -27 -26 -7 -22 28 10 74 13 87 26 104 13 16 12 17 -4 4 -20 -16 -19
-16 -35 22 -6 15 -16 27 -21 27 -14 0 -8 -33 9 -48 8 -8 9 -11 3 -7 -7 3 -13
1 -13 -5 0 -7 7 -10 15 -6 19 7 19 1 -2 -31 l-17 -26 -13 49 c-15 57 -17 94
-5 94 16 0 34 52 22 64 -15 15 -12 47 8 69 9 11 11 17 5 13 -8 -4 -13 -1 -13
8 0 9 8 16 18 16 14 0 15 2 2 10 -24 16 -30 12 -30 -20 0 -16 -4 -30 -10 -30
-5 0 -7 -6 -4 -14 3 -8 2 -21 -3 -30 -9 -17 -32 -4 -50 29 -7 11 -20 20 -30
20 -11 0 -17 6 -15 16 1 9 -5 19 -13 23 -9 3 -13 2 -10 -4 3 -6 1 -10 -5 -10
-6 0 -13 7 -16 15 -4 8 -10 13 -14 10 -5 -3 -15 1 -23 9 -25 26 -81 56 -103
56 -12 0 -27 7 -34 15 -16 20 -31 19 -23 -1 5 -13 0 -15 -29 -10 -46 7 -84 22
-93 35 -12 21 -106 -16 -172 -67 -22 -16 -47 -25 -77 -26 -38 -1 -50 -8 -85
-45 -26 -27 -46 -41 -56 -37 -8 3 -15 2 -15 -3 0 -5 -13 -11 -29 -14 -18 -4
-30 -14 -34 -28 l-6 -23 -21 24 c-15 17 -20 19 -20 8 0 -19 -30 -33 -31 -15
-1 7 -5 1 -9 -13 l-8 -25 0 25 c0 14 4 36 8 50 l8 25 1 -25 c1 -22 3 -23 14
-9 17 21 49 32 57 19 5 -7 11 -5 20 5 12 14 12 16 -1 15 -7 -1 -23 -2 -34 -1
-17 1 -18 3 -5 11 8 5 11 10 6 10 -5 0 -1 9 8 19 10 11 24 17 31 15 9 -4 12 1
8 14 -3 13 3 25 18 36 22 15 22 16 4 16 -28 0 -49 -16 -41 -29 4 -6 4 -11 -1
-10 -4 1 -10 0 -13 -1 -31 -12 -40 -7 -34 18 4 15 11 35 15 44 7 12 4 17 -9
20 -15 3 -14 6 6 23 12 11 22 24 22 30 0 5 -5 3 -10 -5 -7 -10 -10 -11 -10 -2
0 6 11 22 25 34 14 12 25 26 25 32 0 5 -7 1 -15 -10 -8 -10 -15 -16 -15 -11 0
12 65 138 94 180 14 21 26 40 26 43 0 23 184 213 270 278 143 109 327 192 500
225 30 6 64 13 75 15 42 8 283 5 350 -4z m-1571 -125 c-4 -8 -8 -15 -10 -15
-2 0 -4 7 -4 15 0 8 4 15 10 15 5 0 7 -7 4 -15z m105 -45 c11 -24 11 -24 -3
-6 -9 11 -16 16 -16 12 0 -4 -5 -4 -11 0 -8 4 -7 9 2 15 7 4 14 7 15 6 1 -1 7
-13 13 -27z m-94 1 c-8 -14 -35 -14 -35 0 0 5 4 8 9 4 5 -3 13 0 16 6 4 5 9 8
12 5 3 -2 2 -9 -2 -15z m-601 -137 c3 -8 2 -12 -4 -9 -6 3 -10 10 -10 16 0 14
7 11 14 -7z m-88 -13 c5 -5 18 -11 29 -14 20 -5 19 -5 -1 -6 -11 0 -29 6 -40
14 -10 8 -14 15 -8 15 5 0 14 -4 20 -9z m172 -38 c-18 -13 -32 -27 -32 -31 1
-4 5 -25 9 -47 l7 -40 -34 31 c-18 17 -42 34 -52 38 -18 6 -18 8 -3 23 14 14
19 15 29 4 11 -10 10 -11 -4 -6 -10 4 -18 3 -18 -3 0 -17 29 -22 44 -6 12 11
13 21 6 40 -6 14 -10 26 -10 27 0 1 20 1 46 -1 l45 -4 -33 -25z m-63 7 c3 -5
1 -10 -4 -10 -6 0 -11 5 -11 10 0 6 2 10 4 10 3 0 8 -4 11 -10z m-60 -11 c11
-16 1 -19 -13 -3 -7 8 -8 14 -3 14 5 0 13 -5 16 -11z m669 -195 c-5 -20 -2
-26 14 -31 35 -9 35 -49 3 -167 -16 -61 -48 -206 -70 -323 -44 -227 -94 -407
-142 -510 -37 -80 -89 -161 -123 -192 -14 -14 -26 -29 -26 -34 0 -5 20 -32 45
-60 44 -50 108 -163 104 -182 -4 -21 1 -36 11 -30 13 8 83 -218 104 -335 9
-52 23 -122 31 -155 8 -33 19 -89 25 -124 7 -35 27 -117 46 -182 39 -136 39
-133 19 -125 -22 8 -18 -12 5 -24 15 -8 20 -8 21 2 0 12 18 -25 22 -46 1 -5
28 -36 59 -69 32 -33 54 -65 51 -71 -4 -6 0 -5 9 2 13 11 22 10 50 -1 31 -13
36 -22 57 -93 30 -104 64 -165 123 -220 55 -51 176 -111 281 -139 41 -11 67
-23 67 -31 0 -16 12 -18 26 -4 10 10 54 2 54 -10 0 -5 9 -6 20 -3 12 3 20 0
20 -7 0 -8 -9 -11 -25 -8 -34 7 -40 -7 -16 -34 19 -19 21 -20 21 -4 0 13 5 17
20 13 10 -3 21 -2 23 2 2 3 3 1 1 -5 -3 -15 7 -28 31 -43 17 -10 12 -11 -30
-6 -155 19 -366 80 -461 134 -118 68 -198 169 -240 304 -14 46 -25 62 -49 74
-86 45 -159 132 -205 244 -28 68 -99 338 -114 434 -18 113 -97 413 -132 502
-15 38 -38 85 -51 106 -13 21 -21 43 -17 49 4 6 3 8 -3 5 -6 -4 -24 9 -39 28
-16 20 -53 53 -82 75 l-53 39 30 15 c67 35 135 117 188 226 67 140 96 249 183
685 21 105 58 228 92 308 22 52 32 61 22 21z m1961 16 c3 -6 -1 -7 -9 -4 -18
7 -21 14 -7 14 6 0 13 -4 16 -10z m-35 -26 c0 -2 -9 0 -20 6 -11 6 -20 13 -20
16 0 2 9 0 20 -6 11 -6 20 -13 20 -16z m50 -74 c13 -9 13 -10 0 -9 -8 0 -24 4
-35 9 l-20 9 20 0 c11 0 27 -4 35 -9z m1197 -40 c-3 -11 -2 -20 3 -20 4 0 11
-11 14 -24 5 -21 13 -25 52 -28 l47 -3 -39 -26 c-21 -14 -38 -30 -38 -35 1 -5
5 -25 9 -44 l8 -34 -38 28 -37 29 -39 -22 c-44 -25 -46 -23 -23 20 14 28 12
69 -4 69 -4 0 -18 10 -32 21 l-25 21 52 -6 52 -5 17 40 c19 42 30 52 21 19z
m-1072 -8 c-3 -3 -11 0 -18 7 -9 10 -8 11 6 5 10 -3 15 -9 12 -12z m-48 -16
c21 -8 58 -18 83 -24 39 -8 41 -10 14 -11 -17 0 -46 -9 -64 -18 -24 -12 -35
-13 -38 -5 -6 19 -32 14 -83 -18 l-48 -29 17 27 c29 47 65 92 74 92 4 0 25 -6
45 -14z m706 -56 c-3 -11 -7 -20 -8 -20 -1 0 -5 9 -8 20 -3 12 0 20 8 20 8 0
11 -8 8 -20z m-2592 -141 c-5 -13 -10 -19 -10 -12 -1 15 10 45 15 40 3 -2 0
-15 -5 -28z m464 1 c-3 -5 -11 -10 -16 -10 -6 0 -7 5 -4 10 3 6 11 10 16 10 6
0 7 -4 4 -10z m187 1 c34 -1 91 -50 125 -109 l27 -45 -25 -20 c-21 -17 -21
-19 -4 -13 16 5 21 1 22 -14 1 -11 -2 -18 -8 -15 -5 4 -9 2 -9 -4 0 -5 6 -11
13 -14 9 -3 9 -9 -1 -26 -7 -12 -8 -21 -2 -21 13 0 13 -37 1 -45 -6 -3 -13 10
-17 30 -3 20 -12 35 -20 35 -7 0 -29 33 -48 74 -36 77 -53 97 -65 77 -10 -15
-99 22 -107 44 -4 11 -21 15 -58 16 l-51 1 60 29 c45 21 70 28 100 24 22 -2
52 -4 67 -4z m-222 -15 c0 -2 -7 -7 -16 -10 -8 -3 -12 -2 -9 4 6 10 25 14 25
6z m393 -54 c10 -11 20 -37 23 -58 7 -53 17 -58 12 -6 -2 23 -1 42 1 42 10 0
71 -64 71 -74 0 -5 -6 -3 -12 5 -7 8 -12 12 -10 10 1 -2 -6 -13 -15 -24 -18
-19 -17 -19 15 -12 32 7 34 6 27 -15 -5 -15 -4 -20 4 -16 18 12 25 -42 7 -59
-9 -9 -16 -21 -16 -27 0 -5 -5 -8 -11 -6 -6 2 -9 7 -7 11 2 5 -4 13 -14 18
-10 6 -14 16 -10 31 4 15 2 19 -7 13 -9 -5 -12 0 -9 21 2 15 -2 29 -9 31 -7 3
-13 0 -13 -7 0 -6 -4 -9 -9 -6 -5 3 -12 31 -16 62 -5 41 -10 54 -20 50 -12 -4
-75 55 -75 70 0 9 75 -34 93 -54z m-358 -1 c-12 -11 -75 -25 -75 -17 0 3 15
10 33 15 43 12 53 13 42 2z m124 -54 c70 -26 82 -37 117 -111 24 -53 24 -60
-6 -76 -16 -9 -19 -8 -14 7 5 16 5 16 -5 1 -13 -19 -4 -51 11 -42 6 4 9 1 7
-5 -7 -20 -23 -16 -35 8 -11 21 -12 21 -16 3 -3 -11 -1 -27 5 -37 6 -12 6 -16
-1 -11 -6 3 -15 -1 -20 -10 -8 -15 -10 -15 -15 0 -5 12 -3 15 6 10 7 -4 9 -3
4 2 -5 5 -12 9 -16 9 -4 0 -31 27 -60 60 -29 33 -59 64 -68 69 -15 8 -63 101
-63 122 0 12 67 34 90 29 8 -2 44 -15 79 -28z m-192 -44 c34 -44 57 -83 47
-83 -4 0 0 -8 8 -17 14 -16 48 -87 48 -101 0 -3 -9 3 -19 12 -11 10 -17 25
-14 34 4 14 3 14 -5 3 -6 -8 -16 -10 -23 -6 -8 4 -2 -3 13 -16 38 -33 61 -81
45 -91 -8 -5 -7 -8 4 -8 11 0 19 -12 23 -35 4 -19 17 -42 29 -52 39 -32 96
-109 102 -139 4 -16 13 -46 21 -66 7 -20 10 -40 5 -43 -5 -2 -12 3 -15 12 -6
15 -8 15 -16 3 -6 -10 -4 -17 5 -23 16 -8 19 -34 9 -61 -3 -9 -10 -14 -14 -11
-5 3 -6 -4 -3 -15 5 -17 0 -20 -31 -20 -21 0 -35 4 -32 9 3 4 -1 17 -9 27 -14
18 -15 17 -9 -8 10 -44 -14 -34 -81 32 -33 33 -64 60 -70 60 -5 0 -2 -5 8 -11
9 -6 15 -14 12 -20 -4 -5 4 -13 17 -18 21 -8 78 -70 78 -85 0 -3 -9 -6 -19 -6
-11 0 -23 -5 -27 -11 -5 -8 5 -10 32 -5 22 3 63 9 93 12 50 6 53 5 43 -12 -10
-19 0 -52 21 -65 6 -4 6 -13 0 -24 -8 -13 -4 -23 13 -43 19 -20 22 -28 12 -39
-9 -11 -9 -19 0 -34 10 -16 9 -19 -5 -20 -14 0 -13 -2 5 -9 30 -12 28 -27 -3
-26 -34 2 -53 22 -37 38 15 15 16 62 2 53 -6 -4 -8 -10 -6 -14 3 -4 1 -13 -4
-21 -7 -11 -13 -6 -25 23 -14 34 -17 36 -31 22 -14 -14 -14 -17 6 -33 12 -10
24 -29 25 -43 2 -13 6 -33 10 -44 5 -13 -3 -8 -20 13 -14 17 -31 32 -37 32 -5
0 -23 9 -39 21 -16 11 -29 17 -29 12 0 -4 9 -14 21 -21 20 -13 20 -14 3 -34
-11 -11 -17 -31 -16 -44 3 -24 -11 -33 -23 -14 -3 6 -17 10 -29 10 -32 0 -54
26 -36 43 10 10 11 9 5 -3 -5 -9 1 -7 14 5 21 18 22 20 5 24 -12 2 -30 -10
-49 -33 l-31 -37 -38 37 c-21 20 -62 66 -92 102 l-53 65 25 13 c19 10 32 11
47 3 21 -9 21 -9 3 5 -27 22 -10 41 19 22 21 -14 23 -14 18 2 -2 11 7 29 23
45 15 15 23 27 17 27 -5 0 -14 -5 -20 -11 -16 -16 -32 -2 -26 24 4 21 4 22
-11 3 -9 -11 -16 -26 -16 -33 0 -18 -17 -16 -24 3 -3 9 2 28 12 42 30 44 31
46 15 67 -15 20 -15 20 -10 -1 2 -12 1 -28 -4 -35 -6 -10 -9 -8 -9 8 0 12 -3
29 -6 38 -6 14 -1 16 22 14 16 -1 44 5 62 14 37 20 41 28 11 20 -21 -6 -21 -5
4 38 18 31 23 49 17 59 -8 13 -10 13 -10 1 0 -10 -3 -12 -10 -5 -15 15 -14 66
3 106 16 35 16 36 -8 52 -14 9 -25 12 -25 6 0 -6 6 -13 14 -16 8 -3 12 -12 9
-20 -3 -8 -8 -12 -12 -10 -4 3 -7 -8 -6 -22 0 -17 -5 -26 -13 -24 -8 1 -12 -3
-10 -10 6 -17 -32 -52 -43 -41 -12 12 6 63 21 63 5 0 10 5 10 11 0 8 -5 8 -15
-1 -12 -10 -15 -9 -15 4 0 10 -4 14 -10 11 -21 -13 -9 23 13 39 l22 17 -22 -5
c-18 -3 -23 0 -23 15 0 10 -4 19 -9 19 -4 0 -6 -12 -3 -26 3 -18 1 -25 -9 -24
-29 4 -38 0 -32 -17 5 -11 3 -14 -6 -8 -8 4 -17 2 -22 -6 -14 -22 -11 -32 7
-25 14 6 15 4 4 -9 -11 -13 -15 -13 -21 -3 -5 7 -9 9 -9 3 0 -5 -12 10 -27 35
-15 24 -28 39 -31 32 -2 -7 8 -32 22 -56 14 -25 26 -48 26 -53 0 -4 -12 11
-26 35 -14 23 -30 40 -35 37 -5 -4 2 -21 17 -40 25 -34 25 -34 6 -53 -18 -18
-18 -23 -6 -40 7 -11 11 -22 7 -25 -3 -4 5 -15 17 -25 16 -13 20 -21 12 -26
-7 -4 -12 -2 -12 3 0 6 -7 11 -15 11 -8 0 -15 4 -15 9 0 5 -7 11 -14 14 -11 4
-13 1 -9 -11 5 -14 3 -15 -7 -5 -11 10 -11 15 0 28 7 8 9 15 4 15 -5 0 -2 5 6
10 11 7 12 12 4 18 -15 9 -21 53 -10 70 4 7 5 16 2 19 -3 4 -6 1 -6 -7 0 -10
-4 -10 -17 1 -11 10 -14 10 -9 2 4 -7 2 -13 -3 -13 -6 0 -11 12 -11 26 0 14 4
23 8 20 5 -3 8 15 7 40 -1 39 1 43 11 29 7 -9 19 -15 26 -12 7 2 22 0 33 -5
20 -9 20 -9 0 7 -11 8 -25 13 -32 11 -18 -7 -16 -3 7 24 11 13 20 28 19 34 0
6 -3 6 -6 -1 -7 -18 -23 -16 -23 2 0 8 -3 15 -7 15 -5 0 -8 20 -8 44 0 25 3
42 7 40 13 -8 9 11 -4 25 -11 11 -10 13 5 8 12 -5 17 -1 17 11 0 10 5 23 12
30 9 9 6 12 -15 12 -28 0 -32 6 -19 26 6 10 50 16 112 15 36 0 179 -24 228
-38 30 -8 56 -13 58 -11 6 6 -75 58 -90 58 -7 0 -17 -5 -23 -11 -8 -8 -23 -5
-54 9 l-44 19 40 12 c22 6 47 15 55 21 27 18 46 11 77 -27z m582 -2 c0 -3 -5
-15 -10 -26 -9 -19 -9 -18 -5 3 2 12 0 22 -5 22 -5 0 -9 4 -9 10 0 5 7 7 15 4
8 -4 15 -9 14 -13z m-1708 -45 c4 -4 17 -2 30 5 23 11 23 11 9 -6 -8 -10 -14
-30 -13 -44 1 -22 0 -22 -4 -3 -4 20 -18 27 -49 23 -7 -1 -14 10 -18 23 -3 13
-9 32 -13 43 -5 14 -1 13 23 -7 16 -14 32 -29 35 -34z m1726 32 c-3 -8 -6 -5
-6 6 -1 11 2 17 5 13 3 -3 4 -12 1 -19z m-1643 -3 c-4 -8 -11 -15 -16 -15 -6
0 -5 6 2 15 7 8 14 15 16 15 2 0 1 -7 -2 -15z m1495 -54 c11 -20 5 -31 -16
-31 -7 0 -13 11 -13 25 0 29 15 33 29 6z m-831 -27 c2 -29 -14 -64 -29 -64
-14 0 -39 26 -39 39 0 6 6 11 13 11 7 0 18 9 25 20 17 27 27 25 30 -6z m-770
-14 c36 -39 46 -67 33 -92 -11 -22 -11 -22 -6 5 4 17 2 26 -4 23 -5 -4 -11 4
-13 16 -2 15 -11 24 -26 26 -12 2 -20 8 -17 13 4 5 1 9 -5 9 -6 0 -8 5 -5 10
9 15 22 12 43 -10z m1627 -47 c-4 -16 -2 -22 5 -18 5 3 10 -1 10 -9 0 -10 -9
-16 -22 -17 -23 0 -23 0 1 -10 34 -14 81 -65 81 -89 0 -17 -4 -18 -25 -10 -32
12 -54 3 -48 -20 3 -10 -1 -21 -8 -26 -9 -5 -11 -2 -6 9 4 11 1 17 -9 17 -19
0 -36 42 -20 52 10 7 -13 13 -36 9 -3 0 -2 14 3 32 6 17 12 50 14 71 4 44 20
59 48 44 14 -7 17 -16 12 -35z m-1573 15 c-7 -7 -12 -8 -12 -2 0 14 12 26 19
19 2 -3 -1 -11 -7 -17z m1678 -34 c0 -24 -5 -34 -15 -34 -16 0 -19 20 -9 57 9
33 24 18 24 -23z m-414 -11 c59 -75 59 -74 39 -67 -14 6 -16 4 -10 -6 9 -14
-51 18 -64 35 -14 16 -23 85 -12 85 5 0 27 -21 47 -47z m-594 -27 c2 -28 6
-35 18 -31 9 3 8 -1 -4 -10 -11 -8 -14 -15 -8 -15 10 0 10 -3 0 -14 -11 -12
-14 -6 -20 33 -3 25 -7 60 -7 76 -1 43 17 9 21 -39z m754 27 c-2 -16 -4 -32
-5 -36 0 -5 -5 -5 -11 -2 -5 3 -10 1 -10 -5 0 -6 -5 -8 -11 -5 -7 5 -6 12 4
23 8 10 17 25 20 35 10 26 16 21 13 -10z m308 -15 c-22 -43 -25 -46 -21 -21 3
19 24 53 33 53 3 0 -3 -15 -12 -32z m-1012 -28 c-6 -41 -17 -46 -16 -7 2 46 3
49 12 43 5 -3 7 -19 4 -36z m758 -22 c0 -10 -7 -18 -17 -18 -15 0 -15 -1 0
-18 15 -17 15 -18 -3 -19 -17 -2 -20 4 -17 37 2 22 6 42 9 46 4 3 4 13 2 22
-3 10 2 6 10 -8 8 -14 15 -33 16 -42z m210 13 c0 -6 -4 -13 -10 -16 -5 -3 -10
1 -10 9 0 9 5 16 10 16 6 0 10 -4 10 -9z m-319 -29 c-7 -13 -7 -22 0 -29 6 -6
5 -14 -5 -22 -13 -11 -16 -9 -22 13 -4 16 -1 32 6 41 18 21 33 19 21 -3z m377
-10 c6 -18 -15 -14 -22 4 -4 10 -1 14 6 12 6 -2 14 -10 16 -16z m-460 -14 c14
-13 21 -16 17 -8 -8 13 -7 13 8 1 10 -7 16 -19 15 -25 -1 -6 2 -26 6 -43 12
-51 0 -53 -48 -8 -68 66 -66 145 2 83z m112 7 c0 -9 -6 -12 -16 -8 -13 5 -13
7 -2 14 17 11 18 11 18 -6z m300 7 c0 -13 -12 -22 -22 -16 -10 6 -1 24 13 24
5 0 9 -4 9 -8z m-996 -84 c-9 -30 -29 -15 -31 23 -2 27 -1 30 7 14 8 -19 9
-18 10 5 l1 25 10 -24 c5 -13 7 -32 3 -43z m906 26 c0 -8 -4 -12 -10 -9 -5 3
-10 13 -10 21 0 8 5 12 10 9 6 -3 10 -13 10 -21z m130 17 c0 -15 -20 -24 -20
-9 -1 8 -6 6 -15 -6 -8 -11 -18 -17 -21 -13 -9 9 19 36 39 37 9 0 17 -4 17 -9z
m-312 -26 c-3 -3 -9 2 -12 12 -6 14 -5 15 5 6 7 -7 10 -15 7 -18z m2615 -84
l42 -18 -42 -13 c-39 -12 -61 -38 -50 -57 3 -5 1 -17 -2 -27 -7 -17 -10 -15
-30 17 -24 40 -32 43 -62 26 -11 -5 -27 -9 -36 -7 -13 2 -11 9 11 35 22 26 25
36 17 52 -19 35 -14 42 29 35 27 -5 40 -3 40 5 0 6 8 24 18 39 l17 26 3 -47
c3 -46 5 -49 45 -66z m-2393 95 c0 -3 -4 -8 -10 -11 -5 -3 -10 -1 -10 4 0 6 5
11 10 11 6 0 10 -2 10 -4z m-743 -73 c-4 -17 -4 -17 -12 0 -4 9 -4 25 0 35 8
16 8 16 12 0 3 -10 3 -26 0 -35z m493 32 c-7 -8 -18 -15 -24 -15 -6 0 -2 7 8
15 25 19 32 19 16 0z m54 -13 c3 7 5 4 3 -7 -2 -16 -11 -21 -42 -23 l-40 -2
25 19 c17 13 28 16 36 10 8 -7 14 -6 18 3z m121 -12 c3 -5 1 -10 -4 -10 -6 0
-11 5 -11 10 0 6 2 10 4 10 3 0 8 -4 11 -10z m120 0 c-3 -5 -11 -10 -16 -10
-6 0 -7 5 -4 10 3 6 11 10 16 10 6 0 7 -4 4 -10z m-22 -34 c-3 -4 -9 -2 -14 5
-13 22 -11 31 5 17 8 -7 12 -17 9 -22z m-784 -32 c-5 -6 -7 -14 -4 -17 3 -4 2
-4 -2 -1 -4 3 -8 19 -9 35 -2 27 0 28 11 12 8 -11 10 -22 4 -29z m32 3 c-10
-9 -11 -8 -5 6 3 10 9 15 12 12 3 -3 0 -11 -7 -18z m517 9 c3 -3 -2 -6 -12 -6
-9 0 -14 -4 -11 -10 3 -5 17 -10 31 -10 31 0 30 -4 -8 -52 -27 -35 -32 -38
-41 -23 -5 10 -7 34 -4 54 3 20 3 30 0 24 -7 -19 -23 -15 -23 5 0 10 2 21 5
24 7 6 55 2 63 -6z m27 4 c3 -5 1 -10 -4 -10 -6 0 -11 5 -11 10 0 6 2 10 4 10
3 0 8 -4 11 -10z m65 -11 c0 -6 -4 -7 -10 -4 -5 3 -10 11 -10 16 0 6 5 7 10 4
6 -3 10 -11 10 -16z m-818 -11 c-7 -7 -12 -8 -12 -2 0 14 12 26 19 19 2 -3 -1
-11 -7 -17z m294 -14 c-6 -21 -4 -25 9 -21 17 7 16 -15 -3 -65 -13 -33 -27
-41 -53 -33 -17 6 -19 12 -14 38 9 45 26 77 42 77 7 0 12 3 12 8 -2 13 1 22 7
22 3 0 3 -12 0 -26z m-69 -32 c-15 -14 -16 -13 -13 14 5 41 5 41 17 20 9 -14
8 -22 -4 -34z m636 23 c-3 -8 -9 -15 -14 -15 -10 0 -12 24 -3 33 11 11 24 -3
17 -18z m827 -21 c0 -31 -38 -70 -53 -55 -8 8 -7 17 1 33 6 13 14 33 17 46 5
19 9 21 21 11 8 -6 14 -22 14 -35z m-1600 5 c0 -6 -4 -7 -10 -4 -5 3 -10 11
-10 16 0 6 5 7 10 4 6 -3 10 -11 10 -16z m698 4 c-1 -5 4 -19 11 -33 l14 -25
-26 24 c-15 13 -24 28 -21 32 6 11 25 12 22 2z m-673 -43 c-3 -4 0 -11 5 -13
6 -3 5 -4 -2 -3 -7 1 -15 11 -16 21 -3 11 0 15 7 10 6 -3 9 -10 6 -15z m660
-76 c-26 -45 -34 -49 -39 -22 -2 7 -8 26 -15 42 -10 25 -9 32 10 52 l22 24 25
-25 24 -24 -27 -47z m413 66 c20 -11 56 -25 80 -30 23 -6 42 -15 42 -21 0 -14
-39 -89 -46 -89 -4 0 -4 9 -1 20 5 18 -7 26 -35 21 -4 0 -5 6 -2 14 4 10 0 13
-18 10 -33 -7 -60 4 -54 21 12 32 -6 11 -23 -26 -10 -22 -20 -37 -24 -34 -3 3
-3 -2 -1 -13 3 -10 -1 -31 -9 -47 l-15 -28 -8 24 c-4 12 -8 26 -9 30 0 3 -3 9
-7 13 -4 4 -4 13 -2 20 3 8 -2 12 -13 12 -14 -2 -17 4 -15 28 4 38 40 75 83
85 19 4 35 8 37 9 2 1 20 -8 40 -19z m-250 -12 c16 -16 16 -61 0 -56 -6 2 -14
10 -16 18 -3 8 0 10 8 5 8 -5 11 -4 6 3 -3 6 -18 9 -31 6 -24 -4 -25 -4 -8 16
20 23 25 24 41 8z m442 -18 c0 -5 -4 -10 -10 -10 -5 0 -10 5 -10 10 0 6 5 10
10 10 6 0 10 -4 10 -10z m-22 -12 c7 -7 15 -8 24 -1 22 16 55 13 74 -8 23 -26
12 -34 -23 -15 -30 15 -56 8 -51 -14 2 -7 -2 -14 -7 -16 -6 -2 -11 5 -12 17
-1 11 -10 27 -20 35 -10 7 -13 14 -7 14 5 0 15 -5 22 -12z m-1292 -25 c-7 -7
-26 7 -26 19 0 6 6 6 15 -2 9 -7 13 -15 11 -17z m774 -14 c-9 -30 -34 -55 -70
-71 -12 -5 -12 -7 3 -7 9 -1 17 -6 17 -12 0 -5 -4 -8 -9 -4 -5 3 -12 1 -16 -5
-8 -13 -25 -13 -25 -1 0 15 51 72 59 66 5 -2 14 13 21 35 15 46 33 45 20 -1z
m692 9 c-15 -15 -26 -4 -18 18 5 13 9 15 18 6 9 -9 9 -15 0 -24z m98 18 c0 -8
-4 -17 -9 -20 -10 -7 -23 19 -14 28 11 11 23 6 23 -8z m-2574 -23 c-7 -7 -26
7 -26 19 0 6 6 6 15 -2 9 -7 13 -15 11 -17z m75 9 c-15 -29 -37 -43 -54 -36
-24 9 -9 33 27 43 17 5 32 10 34 10 1 1 -2 -7 -7 -17z m1559 -37 c0 -17 -2
-17 -10 -5 -5 8 -10 24 -10 35 0 17 2 17 10 5 5 -8 10 -24 10 -35z m660 13 c0
-30 -1 -31 -16 -12 -15 18 -15 18 -10 -3 4 -13 9 -32 12 -43 4 -15 1 -20 -15
-20 -23 0 -28 15 -8 24 6 3 2 3 -11 0 l-23 -6 20 38 c17 31 37 53 49 54 1 0 2
-14 2 -32z m70 15 c0 5 5 5 11 1 8 -4 7 -9 -2 -15 -11 -6 -11 -11 -2 -20 13
-13 6 -42 -8 -33 -6 3 -16 1 -23 -5 -10 -8 -16 -8 -25 3 -10 11 -6 19 16 40
15 14 22 26 15 26 -7 0 -10 5 -6 11 4 8 9 7 15 -2 5 -8 9 -10 9 -6z m-506 -19
c21 -21 20 -33 -3 -31 -11 0 -17 5 -15 9 3 4 -2 8 -11 8 -13 0 -14 3 -3 15 16
18 14 18 32 -1z m-807 -15 c13 -18 6 -62 -9 -53 -5 3 -7 17 -4 30 5 17 2 24
-9 24 -8 0 -15 5 -15 10 0 14 23 8 37 -11z m1094 10 c44 -15 44 -16 29 -34
-10 -12 -10 -18 1 -32 8 -9 9 -14 3 -10 -7 4 -18 -9 -29 -33 -10 -21 -24 -41
-32 -44 -8 -3 -11 -1 -8 4 3 6 1 10 -4 10 -6 0 -11 9 -11 20 0 11 -7 23 -16
27 -16 6 -15 24 6 78 11 29 14 29 61 14z m-1030 -16 c13 -16 12 -17 -3 -4 -17
13 -22 21 -14 21 2 0 10 -8 17 -17z m2047 -8 c-2 -6 -5 -9 -9 -8 -3 1 -10 -7
-17 -18 -7 -11 -8 -19 -2 -19 5 0 10 5 10 12 0 6 3 8 7 4 5 -4 1 -13 -8 -19
-8 -7 -20 -20 -25 -30 -10 -17 -11 -17 -25 -1 -11 14 -11 16 0 10 10 -7 12 -4
6 13 -4 15 1 27 21 46 27 25 49 30 42 10z m-556 -29 c-33 -52 -58 -86 -63 -86
-15 0 -17 41 -3 47 8 3 13 11 10 18 -2 7 2 21 10 32 9 10 12 12 8 4 -4 -9 -2
-12 7 -9 8 3 13 11 11 18 -3 11 0 11 12 1 9 -7 12 -18 8 -25z m-982 20 c0 -2
3 -12 7 -21 5 -15 3 -16 -15 -6 -25 13 -29 31 -7 31 8 0 15 -2 15 -4z m190 0
c0 -3 -4 -8 -10 -11 -5 -3 -10 -1 -10 4 0 6 5 11 10 11 6 0 10 -2 10 -4z m715
-6 c-3 -5 -11 -10 -16 -10 -6 0 -7 5 -4 10 3 6 11 10 16 10 6 0 7 -4 4 -10z
m-1414 -10 c23 -13 25 -30 4 -30 -18 0 -20 -16 -2 -23 6 -3 -1 -4 -17 -3 -16
1 -31 8 -33 16 -4 13 -3 13 6 0 6 -9 11 -10 11 -3 0 6 3 20 6 30 5 15 4 15 -5
3 -6 -8 -11 -10 -11 -4 0 11 10 24 17 24 3 0 13 -5 24 -10z m883 -5 c-7 -16
-24 -21 -24 -6 0 8 7 13 27 20 1 1 0 -6 -3 -14z m-118 -15 c0 -11 -6 -20 -13
-20 -20 0 -24 18 -6 29 10 6 18 11 18 11 1 0 1 -9 1 -20z m554 16 c0 -3 -4 -8
-10 -11 -5 -3 -10 -1 -10 4 0 6 5 11 10 11 6 0 10 -2 10 -4z m-510 -10 c0 -3
-4 -8 -10 -11 -5 -3 -10 -1 -10 4 0 6 5 11 10 11 6 0 10 -2 10 -4z m432 -28
c-8 -8 -9 -4 -5 13 4 13 8 18 11 10 2 -7 -1 -18 -6 -23z m-32 12 c0 -5 -2 -10
-4 -10 -3 0 -8 5 -11 10 -3 6 -1 10 4 10 6 0 11 -4 11 -10z m190 -41 c0 -5 -4
-9 -10 -9 -5 0 -7 -7 -3 -15 5 -14 1 -14 -23 -3 -42 17 -55 32 -21 24 20 -5
27 -3 27 8 0 8 -5 18 -10 21 -6 4 -7 11 -4 17 7 11 44 -25 44 -43z m-865 11
c0 -13 -7 -25 -15 -28 -8 -3 -12 -1 -8 3 4 5 3 14 -3 21 -12 15 -3 37 14 31 7
-2 12 -14 12 -27z m155 27 c0 -2 -10 -12 -21 -23 -22 -19 -22 -19 -8 4 12 19
29 30 29 19z m40 -31 c-8 -8 -13 -7 -20 4 -12 20 -1 33 16 19 11 -9 12 -15 4
-23z m441 16 c4 -4 10 -27 14 -51 7 -43 7 -44 -11 -27 -10 11 -20 14 -22 8 -2
-7 -14 -7 -33 -2 -18 5 -27 5 -24 -1 4 -5 13 -9 22 -9 12 0 13 -3 3 -14 -6 -8
-17 -13 -25 -10 -8 4 -15 -5 -20 -25 -7 -35 -13 -38 -29 -16 -9 12 -18 13 -49
4 -50 -13 -58 -5 -18 19 21 13 27 22 20 29 -7 7 1 17 25 31 19 11 42 35 51 52
15 28 19 31 53 25 20 -3 40 -9 43 -13z m-274 2 c-3 -4 -2 -15 4 -25 6 -13 6
-19 0 -19 -6 0 -8 -8 -4 -17 5 -17 5 -17 -12 -1 -19 18 -14 68 7 68 6 0 8 -3
5 -6z m448 -4 c3 -6 -1 -7 -9 -4 -18 7 -21 14 -7 14 6 0 13 -4 16 -10z m-535
-21 c-7 -11 -14 -18 -17 -15 -3 3 0 12 7 21 18 21 23 19 10 -6z m-200 1 c0 -5
-5 -10 -11 -10 -5 0 -7 5 -4 10 3 6 8 10 11 10 2 0 4 -4 4 -10z m357 -12 c-3
-8 -6 -5 -6 6 -1 11 2 17 5 13 3 -3 4 -12 1 -19z m893 0 c0 -18 -2 -20 -9 -8
-6 8 -7 18 -5 22 9 14 14 9 14 -14z m56 -2 c12 -25 2 -46 -20 -46 -6 0 -5 5 2
12 17 17 15 31 -3 24 -8 -3 -15 -4 -15 -2 0 3 -3 11 -6 20 -10 27 30 19 42 -8z
m-1806 4 c0 -5 -4 -10 -9 -10 -6 0 -13 5 -16 10 -3 6 1 10 9 10 9 0 16 -4 16
-10z m1135 0 c-3 -5 -13 -10 -21 -10 -8 0 -12 5 -9 10 3 6 13 10 21 10 8 0 12
-4 9 -10z m-1187 -12 c-6 -18 -28 -21 -28 -4 0 9 7 16 16 16 9 0 14 -5 12 -12z
m702 -3 c-10 -12 -10 -15 0 -15 8 0 11 -2 9 -5 -7 -7 -49 6 -49 15 0 5 10 11
23 13 12 2 24 5 26 6 2 0 -2 -6 -9 -14z m498 -7 c-8 -12 -21 -24 -29 -26 -8
-3 -3 7 10 22 30 32 39 34 19 4z m130 -51 c2 -23 -2 -43 -12 -52 -19 -19 -36
-19 -36 1 0 8 -4 12 -10 9 -5 -3 -10 1 -10 9 0 9 5 16 11 16 6 0 8 9 4 23 -4
15 -4 18 3 8 5 -7 15 -10 22 -6 12 8 -8 25 -44 39 -14 5 -16 3 -9 -6 5 -7 13
-21 17 -32 5 -15 2 -17 -17 -12 -30 7 -41 -3 -24 -22 10 -13 9 -14 -10 -2 -23
15 -21 29 12 71 20 26 20 26 60 9 35 -15 40 -21 43 -53z m-543 53 c3 -5 1 -10
-4 -10 -6 0 -11 5 -11 10 0 6 2 10 4 10 3 0 8 -4 11 -10z m1009 -32 c6 -4 7
-10 4 -14 -11 -10 -40 24 -32 38 6 9 9 8 12 -2 3 -8 10 -18 16 -22z m153 26
c-3 -3 -12 -4 -19 -1 -8 3 -5 6 6 6 11 1 17 -2 13 -5z m-1409 -35 c-3 -8 -7
-3 -11 10 -4 17 -3 21 5 13 5 -5 8 -16 6 -23z m74 9 c-5 -21 -4 -22 13 -8 17
13 18 13 10 0 -4 -8 -5 -12 0 -8 4 4 15 2 23 -5 11 -8 9 -3 -3 17 l-19 29 22
-12 c31 -16 25 -47 -8 -43 -14 1 -37 2 -52 3 -34 0 -38 26 -5 39 12 5 23 9 24
9 0 1 -1 -9 -5 -21z m815 -29 c9 -17 9 -25 1 -30 -6 -4 -1 -13 15 -24 23 -14
24 -20 15 -46 -13 -37 -24 -30 -34 24 -4 23 -8 44 -9 47 -1 3 -5 17 -9 32 -5
16 -12 25 -17 23 -4 -3 -4 -17 1 -30 5 -14 7 -25 4 -25 -4 0 -1 -7 6 -15 10
-12 10 -15 -1 -15 -9 0 -10 -3 -4 -8 6 -4 18 -27 27 -50 15 -38 15 -43 2 -38
-12 4 -14 1 -9 -13 4 -14 0 -23 -14 -30 -16 -9 -23 -7 -36 11 -8 13 -20 24
-25 24 -6 1 -14 2 -20 3 -5 0 -10 6 -10 13 0 6 3 8 7 5 3 -4 12 5 20 19 16 32
16 37 1 28 -8 -4 -9 -3 -5 2 5 5 16 9 25 9 9 0 17 5 17 10 0 6 4 16 8 23 5 7
4 12 -3 12 -6 0 -8 5 -4 12 4 7 3 8 -5 4 -6 -4 -9 -11 -6 -16 3 -4 -3 -14 -12
-21 -14 -12 -15 -11 -8 11 4 14 14 32 22 42 9 10 11 18 4 22 -6 4 -8 13 -4 22
5 13 8 13 27 1 11 -8 26 -25 33 -38z m-690 19 c-3 -8 -6 -5 -6 6 -1 11 2 17 5
13 3 -3 4 -12 1 -19z m798 -51 c-14 -10 -23 -23 -19 -28 9 -15 21 -10 27 11 5
21 31 27 42 10 3 -5 2 -10 -3 -10 -5 0 -12 -9 -15 -20 -6 -25 -31 -26 -56 -1
-17 17 -17 24 -8 66 l11 47 23 -28 23 -29 -25 -18z m-417 17 c-4 -3 -16 0 -28
6 -18 10 -20 14 -9 21 15 9 48 -15 37 -27z m792 17 c0 -4 -9 -7 -20 -7 -20 0
-25 7 -14 19 7 7 34 -2 34 -12z m-817 -24 c4 3 7 1 7 -6 0 -17 -32 -10 -38 9
-4 12 -3 13 10 3 8 -7 18 -10 21 -6z m721 -11 c10 -17 12 -27 5 -32 -13 -7
-61 35 -53 47 10 16 32 9 48 -15z m-1144 -7 c3 -1 -13 -5 -35 -8 l-40 -7 29
-14 28 -14 -28 -8 c-33 -9 -31 -10 -39 24 -5 20 -3 27 12 31 16 4 60 2 73 -4z
m1108 -14 c19 -22 21 -29 11 -48 -7 -12 -11 -24 -10 -27 1 -2 -2 -6 -7 -8 -5
-1 -7 12 -4 29 3 23 1 30 -7 24 -7 -4 -10 -13 -7 -20 2 -7 -2 -16 -10 -19 -8
-3 -12 -2 -9 4 3 5 -4 14 -15 20 l-21 11 21 30 c26 35 31 36 58 4z m-622 2 c8
3 14 0 14 -7 0 -7 -8 -10 -20 -7 -11 3 -20 1 -20 -4 0 -5 -9 -9 -20 -9 -11 0
-20 3 -20 8 0 10 44 29 48 20 2 -4 10 -4 18 -1z m521 -23 c-12 -12 -37 5 -30
21 5 15 7 15 21 1 9 -9 13 -18 9 -22z m-897 5 c0 -6 -4 -7 -10 -4 -5 3 -10 11
-10 16 0 6 5 7 10 4 6 -3 10 -11 10 -16z m-90 1 c0 -5 -6 -10 -14 -10 -8 0
-18 5 -21 10 -3 6 3 10 14 10 12 0 21 -4 21 -10z m350 0 c0 -5 -2 -10 -4 -10
-3 0 -8 5 -11 10 -3 6 -1 10 4 10 6 0 11 -4 11 -10z m-152 -31 c-10 -7 -10 -9
0 -9 6 0 12 -5 12 -10 0 -7 -7 -7 -21 1 -16 8 -18 13 -9 19 8 5 9 13 4 21 -6
11 -4 11 10 0 13 -11 14 -16 4 -22z m312 21 c0 -5 -15 -10 -32 -9 -28 0 -30 2
-13 9 28 12 45 12 45 0z m-120 -10 c0 -5 -8 -10 -17 -10 -15 0 -16 2 -3 10 19
12 20 12 20 0z m410 -5 c0 -8 -4 -15 -10 -15 -5 0 -7 7 -4 15 4 8 8 15 10 15
2 0 4 -7 4 -15z m160 -5 c0 -4 -9 -10 -20 -13 -22 -6 -23 -5 -14 17 6 14 34
12 34 -4z m-957 -4 c9 -7 17 -15 17 -17 0 -10 -50 -8 -56 3 -5 8 -2 9 11 4 15
-5 16 -4 5 9 -15 18 -1 19 23 1z m137 -1 c-7 -9 -15 -13 -19 -10 -3 3 1 10 9
15 21 14 24 12 10 -5z m390 7 c0 -5 -6 -17 -14 -28 -10 -13 -14 -14 -13 -4 4
26 27 54 27 32z m610 -1 c0 -5 -7 -11 -15 -15 -9 -3 -15 0 -15 9 0 8 7 15 15
15 8 0 15 -4 15 -9z m-645 -47 c7 -42 2 -52 -20 -34 -9 7 -19 10 -22 6 -4 -4
-1 -11 7 -16 10 -6 11 -10 3 -10 -11 0 -43 48 -44 67 -1 9 29 21 52 22 12 1
19 -11 24 -35z m359 15 c11 -2 21 -10 24 -18 4 -11 -2 -13 -26 -8 -21 4 -32 2
-36 -8 -3 -8 -13 -15 -23 -14 -16 0 -16 1 2 9 11 5 16 9 10 10 -5 0 -2 5 7 11
10 5 15 17 12 27 -4 11 -3 13 3 6 4 -7 17 -13 27 -15z m-987 5 c-3 -3 -12 -4
-19 -1 -8 3 -5 6 6 6 11 1 17 -2 13 -5z m80 0 c-3 -3 -12 -4 -19 -1 -8 3 -5 6
6 6 11 1 17 -2 13 -5z m233 -19 c0 -8 -5 -17 -12 -21 -6 -4 -8 -3 -4 4 3 5 1
12 -6 14 -6 2 -8 10 -4 16 9 15 26 6 26 -13z m233 -6 c6 -21 5 -21 -12 -3 -10
11 -16 22 -14 27 7 11 20 0 26 -24z m532 21 c-3 -5 -14 -10 -23 -10 -15 0 -15
2 -2 10 20 13 33 13 25 0z m69 2 c2 -4 0 -14 -6 -22 -8 -12 -9 -12 -5 2 3 9 1
19 -6 22 -9 3 -9 5 0 5 6 1 14 -3 17 -7z m-1385 -24 c-11 -7 -11 -8 1 -6 8 1
34 -10 57 -26 31 -21 46 -40 55 -67 6 -22 17 -44 25 -50 17 -14 17 -33 1 -23
-7 4 -3 -4 10 -18 l23 -25 -25 4 c-16 3 -26 1 -26 -6 0 -8 -10 -6 -30 4 -16 9
-30 21 -30 27 0 6 8 4 18 -5 10 -10 25 -17 33 -17 9 1 5 8 -10 21 -13 11 -30
18 -37 15 -7 -3 -16 -1 -19 4 -4 6 -12 10 -18 10 -7 0 -4 -5 6 -11 9 -5 17
-14 17 -19 0 -5 -13 -1 -30 8 -16 9 -30 21 -30 25 0 5 4 6 9 3 5 -4 17 -3 26
0 15 6 15 8 0 24 -15 17 -15 20 7 40 19 19 19 21 3 12 -13 -7 -26 -7 -38 0
-14 7 -17 7 -13 -1 4 -6 2 -11 -4 -11 -8 0 -10 9 -5 28 4 15 8 36 10 47 1 11
3 24 4 28 0 5 6 5 12 1 8 -4 7 -9 -2 -16z m249 -15 c2 -26 2 -26 -19 -7 -19
17 -19 19 -2 25 10 4 18 8 18 8 0 1 2 -11 3 -26z m172 -3 c0 -19 -1 -19 -20
-3 -14 12 -16 19 -8 24 17 10 28 1 28 -21z m-37 -8 c29 -25 19 -34 -13 -10
-16 12 -30 26 -30 30 0 10 16 2 43 -20z m107 18 c0 -5 -5 -10 -11 -10 -5 0 -7
5 -4 10 3 6 8 10 11 10 2 0 4 -4 4 -10z m467 -4 c-4 -9 1 -16 11 -19 15 -4 15
-5 -1 -12 -10 -4 -23 -3 -28 2 -11 11 -2 43 13 43 6 0 8 -6 5 -14z m475 -8
c-12 -12 -35 -1 -27 12 3 5 13 6 21 3 10 -4 12 -9 6 -15z m-1274 -8 c11 -17
10 -20 -7 -20 -11 0 -23 5 -26 10 -3 6 0 10 7 10 9 0 9 3 -2 10 -13 9 -13 10
0 10 8 0 21 -9 28 -20z m2042 10 c0 -5 -4 -10 -10 -10 -5 0 -10 -8 -10 -17 0
-16 -1 -16 -17 0 -16 16 -16 19 -3 27 20 13 40 13 40 0z m-1414 -27 c-6 -6
-36 9 -36 18 0 5 9 4 20 -3 10 -7 18 -14 16 -15z m-408 -16 c23 -22 28 -52 12
-77 -9 -13 -11 -13 -19 0 -11 16 -12 15 -29 -20 l-11 -25 5 26 c4 21 1 27 -16
32 -18 4 -20 9 -12 24 7 11 7 24 1 35 -23 43 24 46 69 5z m802 -8 c0 -5 -7 -9
-16 -9 -9 0 -12 5 -8 12 5 7 2 9 -9 5 -15 -6 -31 15 -20 27 7 7 53 -24 53 -35z
m25 31 c3 -5 1 -10 -4 -10 -6 0 -11 5 -11 10 0 6 2 10 4 10 3 0 8 -4 11 -10z
m1608 -7 c-7 -2 -13 -11 -13 -19 0 -9 -4 -12 -10 -9 -5 3 -10 2 -10 -4 0 -6
-12 -27 -26 -48 -23 -35 -29 -38 -75 -39 -27 0 -49 0 -49 2 0 1 16 12 35 24
31 19 35 27 31 51 -5 31 9 38 42 20 13 -7 25 -4 42 10 14 10 30 18 35 18 6 0
4 -3 -2 -6z m-1521 -25 c-7 -7 -12 -8 -12 -2 0 6 3 14 7 17 3 4 9 5 12 2 2 -3
-1 -11 -7 -17z m64 7 c13 -12 12 -15 -4 -24 -24 -13 -36 -3 -19 17 9 13 9 14
0 8 -7 -4 -13 -2 -13 3 0 16 19 13 36 -4z m-1221 -16 c-3 -5 0 -6 8 -3 9 3 17
-3 21 -18 15 -58 -2 -66 -27 -13 -19 40 -22 59 -7 50 6 -4 8 -11 5 -16z m2037
-15 c17 17 18 16 28 -9 14 -36 13 -40 -7 -24 -15 12 -16 12 -10 -5 6 -14 4
-17 -9 -12 -8 3 -19 6 -23 6 -4 0 -8 19 -8 43 -1 35 0 37 6 13 6 -28 7 -29 23
-12z m-2242 5 c0 -6 -4 -7 -10 -4 -5 3 -10 11 -10 16 0 6 5 7 10 4 6 -3 10
-11 10 -16z m788 -6 c2 -8 -5 -13 -17 -13 -21 0 -35 13 -24 24 10 10 36 3 41
-11z m262 2 c14 -17 8 -31 -9 -20 -6 3 -8 11 -5 17 4 6 2 8 -4 4 -6 -3 -13 -2
-17 4 -10 16 21 12 35 -5z m156 4 c2 -4 11 -6 19 -2 8 3 15 0 15 -7 0 -6 -5
-8 -12 -4 -8 5 -9 2 -5 -9 4 -11 1 -17 -8 -17 -8 0 -15 -4 -15 -10 0 -21 -19
-9 -34 22 -9 17 -16 32 -16 33 0 7 51 1 56 -6z m-896 -20 c0 -5 -4 -9 -10 -9
-5 0 -10 7 -10 16 0 8 5 12 10 9 6 -3 10 -10 10 -16z m711 0 c24 -17 33 -19
45 -9 8 7 18 9 22 5 4 -4 1 -10 -5 -12 -7 -3 -13 -9 -13 -15 0 -5 -7 -16 -15
-24 -8 -9 -15 -12 -15 -8 0 3 -7 1 -15 -6 -12 -10 -15 -10 -15 4 0 9 -7 16
-15 16 -8 0 -15 5 -15 11 0 6 -7 17 -15 25 -37 37 8 47 56 13z m123 -8 c3 -5
-1 -11 -9 -14 -9 -4 -12 -1 -8 9 6 16 10 17 17 5z m-183 -38 c13 -16 12 -17
-3 -4 -17 13 -22 21 -14 21 2 0 10 -8 17 -17z m-720 -91 c-7 -2 -18 1 -23 6
-8 8 -4 9 13 5 13 -4 18 -8 10 -11z m854 -10 c-3 -3 -11 0 -18 7 -9 10 -8 11
6 5 10 -3 15 -9 12 -12z m-10 -150 c-3 -3 -11 0 -18 7 -9 10 -8 11 6 5 10 -3
15 -9 12 -12z m-541 -220 c2 -4 -4 -8 -15 -8 -10 0 -19 4 -19 8 0 4 6 8 14 8
8 0 17 -4 20 -8z m576 -17 c14 -19 14 -19 -2 -6 -10 7 -18 18 -18 24 0 6 1 8
3 6 1 -2 9 -13 17 -24z m-183 -7 c-3 -8 -6 -5 -6 6 -1 11 2 17 5 13 3 -3 4
-12 1 -19z m-530 -20 c-3 -8 -6 -5 -6 6 -1 11 2 17 5 13 3 -3 4 -12 1 -19z
m153 -552 c0 -3 -4 -8 -10 -11 -5 -3 -10 -1 -10 4 0 6 5 11 10 11 6 0 10 -2
10 -4z m-46 -45 c3 -4 -4 -7 -14 -8 -11 -1 -22 2 -24 6 -3 4 4 7 14 8 11 1 22
-2 24 -6z m1102 -208 c-1 -14 -7 -28 -15 -31 -10 -3 -11 0 -5 9 5 8 7 22 6 32
-2 9 1 17 6 17 5 0 9 -12 8 -27z m-3093 -120 c-7 -2 -9 -11 -6 -19 3 -8 -1
-14 -11 -14 -10 0 -13 6 -9 18 8 20 25 34 33 25 3 -3 0 -8 -7 -10z m2684 -28
c0 -10 -6 -14 -14 -10 -8 3 -22 5 -31 6 -14 0 -13 2 3 9 30 13 42 12 42 -5z
m-828 -24 c20 -6 58 -15 84 -22 35 -9 55 -21 74 -46 15 -19 44 -42 65 -50 21
-9 36 -18 34 -21 -7 -6 41 -52 54 -52 5 0 17 -12 26 -26 16 -24 16 -26 -3 -46
l-21 -20 -17 28 c-25 43 -91 89 -170 119 -38 15 -81 31 -94 36 -19 8 -21 12
-11 24 7 8 9 15 5 15 -5 0 0 9 10 20 17 19 17 20 1 20 -9 0 -15 -4 -12 -9 3
-5 -1 -12 -10 -15 -11 -4 -14 -1 -12 12 3 13 -7 20 -42 28 -28 7 -36 12 -21
13 13 0 40 -3 60 -8z m816 -26 c0 -10 -10 -22 -23 -26 -15 -6 -21 -5 -17 1 3
6 13 10 21 10 21 0 17 18 -6 25 -11 3 -20 10 -20 15 0 5 10 6 23 1 12 -5 22
-16 22 -26z m-68 -41 c-3 -3 -12 -4 -19 -1 -8 3 -5 6 6 6 11 1 17 -2 13 -5z
m-166 -226 c8 -51 -3 -308 -13 -302 -6 4 -6 -1 1 -13 12 -23 6 -33 -20 -33
-10 0 -20 -8 -22 -17 -3 -10 -5 50 -6 133 0 83 -4 166 -7 183 -6 28 -10 31
-45 31 -27 0 -39 4 -39 14 0 11 15 16 53 19 28 2 62 4 73 5 15 1 23 -5 25 -20z
m1128 -10 c0 -22 -1 -22 -9 -3 -5 12 -9 14 -9 6 -1 -8 -4 -12 -7 -8 -8 7 4 27
17 27 5 0 9 -10 8 -22z m-42 -60 c-3 -8 -6 -5 -6 6 -1 11 2 17 5 13 3 -3 4
-12 1 -19z m-799 -11 c7 -38 -65 -87 -83 -56 -10 15 4 61 15 54 6 -3 10 1 10
10 0 24 54 16 58 -8z m-1553 -187 c-3 -5 -13 -10 -21 -10 -8 0 -14 -7 -14 -15
0 -8 5 -15 10 -15 6 0 10 5 10 10 0 6 15 10 33 9 28 0 29 -2 12 -10 -16 -7
-14 -8 12 -5 17 3 33 1 35 -4 2 -5 17 -11 33 -14 24 -5 26 -4 10 3 -11 5 -14
10 -7 10 7 1 10 6 7 11 -11 18 7 10 44 -19 38 -31 87 -114 76 -131 -9 -15 -25
-12 -25 6 0 9 5 12 12 8 7 -4 8 -3 4 5 -4 6 -11 9 -16 6 -4 -3 -10 1 -13 7 -2
7 -8 9 -13 5 -5 -4 -3 -11 3 -15 7 -5 9 -13 4 -21 -7 -11 -10 -9 -15 7 -7 20
-8 20 -39 -10 l-32 -30 -3 26 c-5 38 -45 56 -72 31 -11 -10 -20 -26 -20 -36 0
-22 37 -50 56 -42 8 3 14 0 14 -6 0 -6 -11 -11 -24 -11 -14 0 -33 -11 -44 -25
l-20 -25 -6 25 c-9 34 -50 44 -79 18 -21 -19 -63 -21 -52 -2 4 5 2 9 -3 9 -5
0 -9 -11 -9 -25 0 -14 -8 -34 -18 -45 -11 -12 -14 -26 -10 -39 8 -26 -6 -27
-27 -3 -30 34 -55 164 -29 148 22 -14 41 7 41 43 0 20 5 42 12 49 6 6 9 14 6
18 -9 8 -26 -27 -30 -61 -4 -39 -23 -43 -22 -4 2 26 63 123 73 113 2 -2 -2
-11 -9 -20 -11 -13 -11 -17 -1 -24 11 -6 11 -12 -3 -31 -18 -27 -20 -39 -6
-39 5 0 12 11 16 25 3 14 10 22 15 19 5 -3 9 -1 9 5 0 5 -4 12 -9 15 -10 6 -3
54 9 61 13 8 40 -6 40 -21 0 -12 4 -12 20 -2 18 12 19 13 2 20 -16 6 -16 7 1
7 9 1 17 8 17 17 0 14 -1 14 -16 0 -17 -17 -44 -21 -44 -7 0 9 36 23 85 34 33
8 36 7 30 -3z m60 0 c17 -7 15 -9 -12 -9 -18 -1 -33 4 -33 9 0 12 17 12 45 0z
m365 -14 c0 -22 -4 -25 -37 -22 -50 3 -52 29 -3 37 19 4 36 7 38 8 1 0 2 -10
2 -23z m1128 -11 c5 -42 -8 -116 -19 -110 -5 4 -9 -3 -9 -13 0 -17 -12 -28
-38 -33 -4 -1 -8 29 -9 65 -1 75 -14 98 -51 94 -14 -2 -27 2 -29 9 -3 8 16 13
64 15 90 5 88 6 91 -27z m-1218 15 c0 -5 -12 -10 -26 -10 -14 0 -23 4 -19 10
3 6 15 10 26 10 10 0 19 -4 19 -10z m254 0 c20 -7 26 -17 26 -39 0 -32 -24
-48 -46 -30 -17 14 -103 14 -118 -1 -5 -5 -17 -10 -25 -10 -9 1 -3 8 14 17 17
10 33 16 38 15 4 -1 6 3 5 10 -2 6 13 20 32 29 42 22 42 22 74 9z m1116 0 c0
-5 -7 -10 -15 -10 -8 0 -15 5 -15 10 0 6 7 10 15 10 8 0 15 -4 15 -10z m110
-5 c0 -8 -2 -15 -4 -15 -2 0 -6 7 -10 15 -3 8 -1 15 4 15 6 0 10 -7 10 -15z
m238 -5 c38 -23 51 -52 50 -110 0 -22 -1 -40 -3 -38 -11 14 -25 49 -17 44 6
-3 9 5 8 19 -1 23 -2 24 -14 8 -6 -9 -10 -25 -7 -34 3 -10 1 -20 -4 -24 -16
-9 -25 43 -14 80 10 30 8 34 -14 44 -21 10 -24 9 -20 -3 4 -10 0 -12 -14 -9
-10 3 -19 1 -19 -3 0 -5 -25 -10 -55 -11 -31 -2 -66 -8 -78 -14 l-22 -12 20
23 c11 12 35 29 54 37 31 13 36 13 47 -1 6 -9 15 -16 20 -16 4 0 3 5 -4 12 -7
7 -12 16 -12 20 0 16 66 8 98 -12z m382 10 c12 -8 10 -10 -10 -10 -48 -1 -65
-11 -97 -60 -18 -28 -33 -54 -33 -59 0 -5 -9 -7 -20 -4 -25 7 -25 10 8 58 48
68 113 101 152 75z m-2997 -30 c-15 -16 -33 -30 -40 -30 -19 0 -27 -21 -12
-32 12 -8 11 -9 -1 -5 -8 2 -20 -5 -27 -17 -7 -12 -12 -16 -12 -11 -1 26 48
92 79 107 46 23 46 23 13 -12z m237 -30 c0 -28 -26 -31 -49 -6 -21 22 -27 47
-15 59 11 11 64 -33 64 -53z m1287 52 c17 -11 33 -58 33 -98 0 -32 -2 -34 -27
-28 -41 10 -43 12 -43 49 0 28 -6 37 -30 50 -35 18 -63 18 -114 0 -35 -12 -37
-12 -24 2 9 8 31 19 49 23 44 10 141 12 156 2z m800 -24 c-3 -8 -6 -5 -6 6 -1
11 2 17 5 13 3 -3 4 -12 1 -19z m274 -25 c-12 -20 -14 -14 -5 12 4 9 9 14 11
11 3 -2 0 -13 -6 -23z m-2347 -27 c-3 -9 -10 -16 -15 -16 -5 0 -4 9 3 20 14
22 21 20 12 -4z m736 -135 c0 -100 -2 -109 -20 -114 -16 -4 -20 0 -21 21 -1
20 -4 17 -9 -13 -6 -36 -7 -33 -8 25 0 36 2 59 5 51 5 -11 7 -11 14 0 6 10 9
6 9 -13 0 -16 4 -28 8 -28 4 0 8 35 9 78 1 95 2 102 8 102 3 0 5 -49 5 -109z
m840 73 c0 -19 -4 -25 -14 -21 -8 3 -17 1 -19 -6 -3 -7 -5 -1 -4 13 2 43 37
56 37 14z m550 -74 c0 -63 -3 -80 -14 -80 -8 0 -17 -8 -20 -17 -3 -10 -4 -1
-1 19 2 21 0 40 -5 43 -16 10 -22 58 -8 67 10 6 10 10 -2 18 -11 8 -8 9 13 4
21 -5 27 -3 27 10 0 9 2 16 5 16 3 0 5 -36 5 -80z m-853 64 c-3 -3 -12 -4 -19
-1 -8 3 -5 6 6 6 11 1 17 -2 13 -5z m1486 -1 c-7 -2 -21 -2 -30 0 -10 3 -4 5
12 5 17 0 24 -2 18 -5z m-1467 -30 c-10 -10 -19 5 -10 18 6 11 8 11 12 0 2 -7
1 -15 -2 -18z m271 -9 c-3 -3 -12 -4 -19 -1 -8 3 -5 6 6 6 11 1 17 -2 13 -5z
m-860 -26 c-3 -8 -6 -5 -6 6 -1 11 2 17 5 13 3 -3 4 -12 1 -19z m1108 13 c3
-5 1 -12 -5 -16 -5 -3 -10 1 -10 9 0 18 6 21 15 7z m-1275 -21 c0 -5 -4 -10
-10 -10 -5 0 -10 5 -10 10 0 6 5 10 10 10 6 0 10 -4 10 -10z m759 -57 c-1 -32
-4 -47 -6 -33 -6 33 -23 52 -40 46 -15 -6 -17 3 -3 24 6 10 10 11 10 3 0 -7 7
-13 15 -13 8 0 15 7 15 15 0 8 2 15 5 15 3 0 4 -26 4 -57z m-214 17 c-3 -5
-12 -10 -18 -10 -7 0 -6 4 3 10 19 12 23 12 15 0z m1541 -11 c3 -6 1 -16 -6
-22 -10 -9 -12 -8 -7 5 3 9 1 19 -6 22 -9 3 -9 5 0 5 6 1 15 -4 19 -10z m-549
-46 c-3 -10 -5 -4 -5 12 0 17 2 24 5 18 2 -7 2 -21 0 -30z m520 7 c3 -17 10
-33 14 -36 5 -3 6 -10 3 -16 -4 -7 -2 -8 4 -4 7 4 12 2 12 -4 0 -6 4 -9 9 -5
6 3 9 -4 8 -15 -1 -17 -3 -18 -22 -6 -21 14 -68 85 -47 72 7 -4 12 -1 12 8 0
9 -7 16 -15 16 -8 0 -15 5 -15 10 0 25 31 7 37 -20z m-2352 -18 c-9 -9 -35 8
-35 23 0 13 3 12 20 -2 11 -9 17 -19 15 -21z m2435 -35 c0 -9 -40 1 -53 13 -5
4 -6 18 -2 31 l8 23 23 -29 c13 -17 24 -34 24 -38z m-2516 38 c-4 -8 -8 -15
-10 -15 -2 0 -4 7 -4 15 0 8 4 15 10 15 5 0 7 -7 4 -15z m126 1 c0 -2 -7 -6
-15 -10 -8 -3 -15 -1 -15 4 0 6 7 10 15 10 8 0 15 -2 15 -4z m2129 -28 c-5
-46 10 -68 47 -68 19 0 34 -4 34 -10 0 -5 -23 -10 -51 -10 -46 0 -50 2 -44 20
5 16 2 20 -19 20 -41 0 -33 52 9 63 11 2 21 5 23 6 2 0 2 -9 1 -21z m-2669
-32 c0 -5 -7 -3 -15 4 -9 8 -15 9 -15 2 0 -6 10 -18 22 -26 12 -9 18 -16 12
-16 -12 0 -33 17 -59 49 -17 21 -18 24 -3 18 10 -3 20 -2 24 4 6 10 33 -17 34
-35z m450 33 c-11 -7 -4 -8 22 -6 21 3 35 0 32 -4 -3 -5 -12 -9 -20 -9 -8 0
-14 -4 -14 -10 0 -5 -9 -10 -20 -10 -12 0 -20 7 -20 18 0 13 -2 14 -9 3 -7
-10 -10 -10 -16 -1 -9 14 5 25 37 27 18 2 20 0 8 -8z m1060 -3 c0 -8 2 -23 5
-33 3 -10 -1 -5 -8 10 -13 28 -13 28 -32 7 -10 -11 -22 -20 -26 -20 -13 0 35
48 49 49 6 1 12 -5 12 -13z m-1072 -65 c-6 -2 -22 9 -37 24 l-26 27 36 -24
c20 -13 32 -25 27 -27z m102 29 c0 -5 -4 -10 -10 -10 -5 0 -10 5 -10 10 0 6 5
10 10 10 6 0 10 -4 10 -10z m1506 -35 c-21 -16 -86 -17 -86 -2 0 5 13 7 29 4
17 -4 36 0 47 8 11 7 21 11 24 8 3 -2 -4 -11 -14 -18z m-1516 -11 c0 -2 -7 -4
-15 -4 -8 0 -15 4 -15 10 0 5 7 7 15 4 8 -4 15 -8 15 -10z m2543 -1 c-7 -2
-19 -2 -25 0 -7 3 -2 5 12 5 14 0 19 -2 13 -5z m-2530 -20 c-7 -2 -21 -2 -30
0 -10 3 -4 5 12 5 17 0 24 -2 18 -5z m614 -189 c-3 -3 -12 -4 -19 -1 -8 3 -5
6 6 6 11 1 17 -2 13 -5z m73 2 c0 -3 -4 -8 -10 -11 -5 -3 -10 -1 -10 4 0 6 5
11 10 11 6 0 10 -2 10 -4z m90 0 c0 -3 -4 -8 -10 -11 -5 -3 -10 -1 -10 4 0 6
5 11 10 11 6 0 10 -2 10 -4z m710 0 c0 -11 -19 -15 -25 -6 -3 5 1 10 9 10 9 0
16 -2 16 -4z m70 -6 c0 -5 -4 -10 -10 -10 -5 0 -10 5 -10 10 0 6 5 10 10 10 6
0 10 -4 10 -10z m790 6 c0 -3 -4 -8 -10 -11 -5 -3 -10 -1 -10 4 0 6 5 11 10
11 6 0 10 -2 10 -4z m-1720 -158 c0 -39 -2 -69 -5 -66 -3 3 -6 32 -6 64 -1 70
-1 74 6 74 3 0 5 -32 5 -72z m-105 23 c-3 -6 -11 -11 -17 -11 -6 0 -6 6 2 15
14 17 26 13 15 -4z m651 -8 c-10 -10 -19 5 -10 18 6 11 8 11 12 0 2 -7 1 -15
-2 -18z m-647 -138 c-3 -103 -16 -114 -17 -14 0 39 -6 77 -12 85 -10 11 -9 14
9 14 21 0 22 -4 20 -85z m404 73 c-2 -5 -16 -8 -31 -8 -24 -1 -25 -2 -11 -13
14 -10 15 -18 5 -46 -6 -19 -18 -37 -26 -39 -11 -4 -10 -1 3 12 33 34 13 87
-38 98 -11 3 8 4 42 4 33 -1 59 -4 56 -8z m135 3 c7 -4 12 -19 11 -32 -5 -53
2 -98 16 -113 22 -21 -2 -32 -25 -11 -15 14 -18 27 -13 79 4 58 3 63 -19 73
-21 11 -21 12 -3 12 11 0 26 -3 33 -8z m117 -76 c0 -72 -3 -85 -16 -85 -13 0
-15 7 -10 38 10 62 2 120 -17 125 -9 3 -3 5 13 6 l30 1 0 -85z m97 23 c-4 -84
-12 -100 -9 -20 1 34 -2 62 -6 62 -5 0 -5 5 -2 10 15 24 21 6 17 -52z m190 50
c23 -18 30 -158 8 -158 -12 0 -14 11 -12 55 6 84 -2 106 -36 100 -22 -4 -24
-4 -7 4 27 13 29 13 47 -1z m166 6 c20 -6 22 -12 22 -75 0 -53 4 -71 15 -75 8
-4 12 -10 9 -16 -3 -5 -14 -2 -25 8 -17 15 -19 27 -15 80 5 61 5 63 -22 72
-30 12 -20 15 16 6z m131 -22 c-5 -2 -9 -22 -9 -45 0 -54 -10 -42 -11 14 -2
60 -1 62 15 47 8 -7 10 -14 5 -16z m85 12 c18 -17 24 -154 7 -154 -5 0 -7 27
-4 60 5 69 -5 90 -46 90 -20 0 -23 2 -11 10 21 14 36 12 54 -6z m-1414 -19 c7
-8 8 -15 2 -15 -5 0 -15 7 -22 15 -7 8 -8 15 -2 15 5 0 15 -7 22 -15z m352
-20 c-4 -30 0 -37 29 -55 27 -16 30 -20 11 -17 -28 4 -51 34 -52 68 0 21 7 39
15 39 0 0 -1 -16 -3 -35z m198 20 c0 -8 -4 -15 -10 -15 -5 0 -7 7 -4 15 4 8 8
15 10 15 2 0 4 -7 4 -15z m-846 -10 c-4 -8 -8 -15 -10 -15 -2 0 -4 7 -4 15 0
8 4 15 10 15 5 0 7 -7 4 -15z m187 -16 c-9 -22 -10 -22 -10 -3 -1 11 2 24 6
27 12 12 14 0 4 -24z m1239 21 c0 -5 -5 -10 -11 -10 -5 0 -7 5 -4 10 3 6 8 10
11 10 2 0 4 -4 4 -10z m457 -12 c-3 -8 -6 -5 -6 6 -1 11 2 17 5 13 3 -3 4 -12
1 -19z m-1395 -70 c2 -29 -1 -48 -7 -48 -13 0 -19 73 -9 103 9 25 11 16 16
-55z m-1032 26 c0 -8 -5 -14 -11 -14 -5 0 -7 5 -4 10 3 6 1 10 -5 10 -6 0 -8
5 -5 10 8 13 25 3 25 -16z m93 19 c-7 -2 -21 -2 -30 0 -10 3 -4 5 12 5 17 0
24 -2 18 -5z m1699 -43 c2 -39 0 -50 -12 -50 -12 0 -14 11 -12 50 2 27 8 50
12 50 4 0 10 -23 12 -50z m-402 0 c-15 -28 -3 -43 28 -37 24 5 25 4 9 -8 -39
-29 -79 19 -45 53 18 18 20 15 8 -8z m593 13 c-7 -2 -13 -16 -13 -29 0 -18 5
-24 23 -24 19 -1 20 -2 5 -10 -20 -12 -48 -3 -48 17 0 22 19 53 33 52 9 0 9
-2 0 -6z m-1193 -53 l35 -8 -34 -1 c-36 -1 -71 22 -71 47 0 10 6 7 18 -8 9
-12 33 -25 52 -30z m1710 5 c-7 -8 -16 -15 -21 -15 -5 0 -1 8 9 18 20 22 31
19 12 -3z m-1244 -5 c27 0 50 -7 65 -19 23 -19 23 -21 9 -47 -8 -15 -21 -29
-29 -32 -7 -2 -4 5 8 17 11 11 21 25 21 29 0 13 -48 32 -81 32 -37 0 -72 17
-63 31 4 7 10 7 17 0 6 -6 30 -11 53 -11z m-72 -54 c-4 -18 0 -28 17 -40 17
-12 19 -16 7 -16 -24 0 -41 27 -34 55 4 14 9 25 11 25 3 0 3 -11 -1 -24z"/>
<path d="M1915 5990 c-3 -5 -2 -10 4 -10 5 0 13 5 16 10 3 6 2 10 -4 10 -5 0
-13 -4 -16 -10z"/>
<path d="M1608 5933 c7 -3 16 -2 19 1 4 3 -2 6 -13 5 -11 0 -14 -3 -6 -6z"/>
<path d="M1548 5874 c6 -3 9 -10 6 -16 -4 -6 -1 -9 5 -7 19 7 14 24 -6 26 -10
2 -12 0 -5 -3z"/>
<path d="M1021 5348 c-13 -21 -13 -22 2 -9 10 8 27 11 44 7 27 -6 27 -6 9 9
-27 21 -39 19 -55 -7z"/>
<path d="M1556 5465 c-9 -26 -7 -32 5 -12 6 10 9 21 6 23 -2 3 -7 -2 -11 -11z"/>
<path d="M1450 5371 c-12 -17 -18 -31 -13 -31 11 1 46 50 40 56 -3 3 -15 -9
-27 -25z"/>
<path d="M1466 5334 c-8 -22 -4 -25 11 -9 7 8 9 16 4 19 -5 3 -12 -1 -15 -10z"/>
<path d="M1440 5316 c0 -8 4 -17 9 -20 5 -4 7 3 4 14 -6 23 -13 26 -13 6z"/>
<path d="M1320 5280 c-13 -8 -12 -10 3 -10 9 0 17 5 17 10 0 12 -1 12 -20 0z"/>
<path d="M1395 5194 c-18 -27 -13 -46 7 -26 11 11 22 52 14 52 -2 0 -11 -12
-21 -26z"/>
<path d="M1355 5140 c-3 -5 -1 -10 4 -10 6 0 11 5 11 10 0 6 -2 10 -4 10 -3 0
-8 -4 -11 -10z"/>
<path d="M1335 5080 c-3 -5 -1 -10 4 -10 6 0 11 5 11 10 0 6 -2 10 -4 10 -3 0
-8 -4 -11 -10z"/>
<path d="M1330 5051 c0 -6 5 -13 10 -16 6 -3 10 1 10 9 0 9 -4 16 -10 16 -5 0
-10 -4 -10 -9z"/>
<path d="M2150 4950 c-8 -5 -11 -12 -7 -16 4 -4 13 -2 19 4 15 15 7 24 -12 12z"/>
<path d="M1275 4924 c4 -11 8 -27 9 -36 0 -9 4 -15 7 -12 12 7 3 58 -11 62 -9
3 -11 -1 -5 -14z"/>
<path d="M1235 4880 c-3 -5 -1 -10 4 -10 6 0 11 5 11 10 0 6 -2 10 -4 10 -3 0
-8 -4 -11 -10z"/>
<path d="M2244 4755 c-10 -8 -14 -15 -8 -15 6 0 17 7 24 15 16 19 9 19 -16 0z"/>
<path d="M2323 4726 c0 -18 3 -24 9 -18 7 7 7 16 0 28 -8 14 -9 13 -9 -10z"/>
<path d="M2275 4710 c-3 -5 -1 -10 4 -10 6 0 11 5 11 10 0 6 -2 10 -4 10 -3 0
-8 -4 -11 -10z"/>
<path d="M2303 4675 c-3 -9 -3 -18 -1 -21 3 -3 8 4 11 16 6 23 -1 27 -10 5z"/>
<path d="M2315 4560 c3 -5 8 -10 11 -10 2 0 4 5 4 10 0 6 -5 10 -11 10 -5 0
-7 -4 -4 -10z"/>
<path d="M2447 4563 c-4 -3 -7 -11 -7 -17 0 -6 5 -5 12 2 6 6 9 14 7 17 -3 3
-9 2 -12 -2z"/>
<path d="M2342 4524 c-14 -16 -5 -18 17 -5 7 5 9 11 5 14 -5 3 -15 -1 -22 -9z"/>
<path d="M2340 4445 c-7 -9 -8 -15 -2 -15 5 0 12 7 16 15 3 8 4 15 2 15 -2 0
-9 -7 -16 -15z"/>
<path d="M3355 4369 c-7 -39 -34 -66 -43 -41 -2 7 -8 12 -13 12 -5 0 -4 -11 1
-26 7 -17 6 -32 -2 -47 -22 -43 19 2 49 51 27 48 36 79 22 87 -4 3 -10 -13
-14 -36z"/>
<path d="M2445 4370 c-3 -5 -1 -10 4 -10 6 0 11 5 11 10 0 6 -2 10 -4 10 -3 0
-8 -4 -11 -10z"/>
<path d="M2545 4360 c-3 -6 1 -7 9 -4 18 7 21 14 7 14 -6 0 -13 -4 -16 -10z"/>
<path d="M2945 4362 c-6 -4 -19 -20 -29 -37 -17 -29 -17 -29 13 4 36 39 42 52
16 33z"/>
<path d="M3240 4356 c0 -2 7 -6 15 -10 8 -3 15 -1 15 4 0 6 -7 10 -15 10 -8 0
-15 -2 -15 -4z"/>
<path d="M2504 4334 c-18 -14 -18 -15 4 -4 12 6 22 13 22 15 0 8 -5 6 -26 -11z"/>
<path d="M2706 4317 c3 -10 9 -15 12 -12 3 3 0 11 -7 18 -10 9 -11 8 -5 -6z"/>
<path d="M3378 4275 c11 -22 50 -61 55 -54 1 2 -13 20 -31 39 -19 19 -30 26
-24 15z"/>
<path d="M2436 4241 c-3 -5 1 -11 9 -14 9 -4 12 -1 8 9 -6 16 -10 17 -17 5z"/>
<path d="M2525 4240 c3 -5 8 -10 11 -10 2 0 4 5 4 10 0 6 -5 10 -11 10 -5 0
-7 -4 -4 -10z"/>
<path d="M3310 4229 c0 -5 5 -7 10 -4 6 3 10 8 10 11 0 2 -4 4 -10 4 -5 0 -10
-5 -10 -11z"/>
<path d="M3301 4163 c7 -12 15 -20 18 -17 3 2 -3 12 -13 22 -17 16 -18 16 -5
-5z"/>
<path d="M2906 4124 c-10 -37 -2 -39 11 -4 6 17 8 30 3 30 -4 0 -11 -12 -14
-26z"/>
<path d="M3121 4094 c6 -8 18 -14 26 -14 20 0 8 16 -17 23 -17 4 -19 3 -9 -9z"/>
<path d="M3010 4081 c0 -10 19 -25 25 -20 1 2 -3 10 -11 17 -8 7 -14 8 -14 3z"/>
<path d="M747 3799 c7 -7 15 -10 18 -7 3 3 -2 9 -12 12 -14 6 -15 5 -6 -5z"/>
<path d="M907 3093 c-4 -3 -7 -11 -7 -17 0 -6 5 -5 12 2 6 6 9 14 7 17 -3 3
-9 2 -12 -2z"/>
<path d="M941 3044 c0 -11 3 -14 6 -6 3 7 2 16 -1 19 -3 4 -6 -2 -5 -13z"/>
<path d="M937 2973 c-4 -3 -7 -11 -7 -17 0 -6 5 -5 12 2 6 6 9 14 7 17 -3 3
-9 2 -12 -2z"/>
<path d="M2052 4739 c2 -7 10 -15 17 -17 8 -3 12 1 9 9 -2 7 -10 15 -17 17 -8
3 -12 -1 -9 -9z"/>
<path d="M2083 4682 c-1 -22 0 -24 9 -8 6 10 6 22 2 26 -5 5 -10 -3 -11 -18z"/>
<path d="M1210 4730 c0 -5 4 -10 9 -10 6 0 13 5 16 10 3 6 -1 10 -9 10 -9 0
-16 -4 -16 -10z"/>
<path d="M1210 4561 c0 -6 4 -13 10 -16 6 -3 7 1 4 9 -7 18 -14 21 -14 7z"/>
<path d="M1513 4525 c0 -22 2 -30 4 -17 2 12 2 30 0 40 -3 9 -5 -1 -4 -23z"/>
<path d="M1196 4425 c4 -8 10 -15 15 -15 4 0 6 7 3 15 -4 8 -10 15 -15 15 -4
0 -6 -7 -3 -15z"/>
<path d="M1542 4365 c-6 -14 -10 -25 -8 -25 2 0 11 11 20 25 9 14 13 25 8 25
-5 0 -14 -11 -20 -25z"/>
<path d="M1420 4340 c0 -5 5 -10 11 -10 5 0 7 5 4 10 -3 6 -8 10 -11 10 -2 0
-4 -4 -4 -10z"/>
<path d="M1227 4329 c7 -7 15 -10 18 -7 3 3 -2 9 -12 12 -14 6 -15 5 -6 -5z"/>
<path d="M1220 4250 c0 -5 5 -10 11 -10 5 0 7 5 4 10 -3 6 -8 10 -11 10 -2 0
-4 -4 -4 -10z"/>
<path d="M1507 4121 c44 -32 86 -84 76 -95 -10 -10 20 -7 37 4 13 8 13 10 -1
10 -9 0 -24 9 -34 20 -15 17 -16 22 -4 37 12 16 12 17 -2 6 -13 -10 -21 -7
-50 17 -19 16 -40 29 -48 30 -8 0 4 -13 26 -29z"/>
<path d="M1535 4020 c3 -5 10 -10 16 -10 5 0 9 5 9 10 0 6 -7 10 -16 10 -8 0
-12 -4 -9 -10z"/>
<path d="M1376 3921 c-4 -5 -2 -12 3 -15 5 -4 12 -2 15 3 4 5 2 12 -3 15 -5 4
-12 2 -15 -3z"/>
<path d="M1455 3910 c3 -5 8 -10 11 -10 2 0 4 5 4 10 0 6 -5 10 -11 10 -5 0
-7 -4 -4 -10z"/>
<path d="M1825 3890 c3 -5 8 -10 11 -10 2 0 4 5 4 10 0 6 -5 10 -11 10 -5 0
-7 -4 -4 -10z"/>
<path d="M1650 3786 c0 -2 7 -9 15 -16 9 -7 15 -8 15 -2 0 5 -7 12 -15 16 -8
3 -15 4 -15 2z"/>
<path d="M1620 3762 c0 -6 9 -12 20 -15 11 -3 20 -3 20 -1 0 2 -9 8 -20 14
-11 6 -20 7 -20 2z"/>
<path d="M1145 4640 c3 -5 8 -10 11 -10 2 0 4 5 4 10 0 6 -5 10 -11 10 -5 0
-7 -4 -4 -10z"/>
<path d="M4435 4400 c3 -5 8 -10 11 -10 2 0 4 5 4 10 0 6 -5 10 -11 10 -5 0
-7 -4 -4 -10z"/>
<path d="M2783 3796 c0 -8 6 -12 14 -9 7 3 10 9 7 14 -8 14 -21 11 -21 -5z"/>
<path d="M2748 3773 c7 -3 16 -2 19 1 4 3 -2 6 -13 5 -11 0 -14 -3 -6 -6z"/>
<path d="M2773 3763 c-17 -6 -16 -23 1 -23 8 0 16 7 20 15 6 15 1 17 -21 8z"/>
<path d="M3125 3841 c-3 -5 -1 -12 5 -16 5 -3 10 1 10 9 0 18 -6 21 -15 7z"/>
<path d="M1794 3618 c-4 -7 -3 -8 4 -4 7 4 12 3 12 -2 0 -6 7 -12 15 -16 22
-8 18 12 -4 24 -14 7 -22 7 -27 -2z"/>
<path d="M4430 3680 c0 -5 5 -10 11 -10 5 0 7 5 4 10 -3 6 -8 10 -11 10 -2 0
-4 -4 -4 -10z"/>
<path d="M2585 1620 c-3 -5 -1 -10 4 -10 6 0 11 5 11 10 0 6 -2 10 -4 10 -3 0
-8 -4 -11 -10z"/>
<path d="M2825 1709 c-4 -6 -4 -13 -1 -16 3 -4 6 -1 6 5 0 6 8 13 18 15 15 4
15 5 0 6 -9 0 -20 -4 -23 -10z"/>
<path d="M1395 1483 c2 -10 4 -22 4 -27 1 -6 5 -6 11 0 11 11 3 44 -10 44 -5
0 -7 -8 -5 -17z"/>
<path d="M1258 1385 c-9 -21 -8 -28 7 -45 23 -26 50 -25 69 1 11 17 12 27 4
45 -16 34 -64 33 -80 -1z"/>
<path d="M1198 1323 c7 -3 16 -2 19 1 4 3 -2 6 -13 5 -11 0 -14 -3 -6 -6z"/>
<path d="M1917 1509 c-9 -6 -15 -14 -12 -20 8 -12 35 -12 35 2 0 5 -6 7 -12 4
-7 -4 -4 1 6 9 22 18 11 21 -17 5z"/>
<path d="M963 1508 c0 -9 8 -20 18 -26 13 -9 19 -8 23 4 4 10 1 14 -6 11 -7
-2 -18 3 -24 11 -9 13 -11 13 -11 0z"/>
<path d="M3670 1190 c0 -5 5 -10 11 -10 5 0 7 5 4 10 -3 6 -8 10 -11 10 -2 0
-4 -4 -4 -10z"/>
</g>
</svg>
