<?xml version="1.0" standalone="no"?>
<!DOCTYPE svg PUBLIC "-//W3C//DTD SVG 20010904//EN"
 "http://www.w3.org/TR/2001/REC-SVG-20010904/DTD/svg10.dtd">
<svg version="1.0" xmlns="http://www.w3.org/2000/svg"
 width="244.726" height="344" viewBox="0 0 741.000000 1140.000000"
 preserveAspectRatio="xMidYMid meet">

<g transform="translate(0.000000,1140.000000) scale(0.100000,-0.100000)"
fill="#000000" stroke="none">
<path d="M6341 10286 c2 -2 18 -6 34 -10 22 -5 26 -4 15 4 -14 9 -59 15 -49 6z"/>
<path d="M6447 10259 c7 -7 15 -10 18 -7 3 3 -2 9 -12 12 -14 6 -15 5 -6 -5z"/>
<path d="M6492 10193 c-9 -20 -9 -24 0 -15 9 9 16 8 29 -4 17 -15 18 -15 6 15
-14 38 -18 38 -35 4z"/>
<path d="M6426 10112 l-29 -37 36 34 c39 36 42 41 30 41 -5 0 -21 -17 -37 -38z"/>
<path d="M180 10011 c0 -6 5 -11 12 -11 6 0 35 -18 65 -40 29 -23 53 -36 53
-31 0 10 -28 31 -92 70 -21 12 -38 18 -38 12z"/>
<path d="M196 9965 c8 -35 53 -126 54 -109 0 19 -28 93 -45 117 -16 22 -16 22
-9 -8z"/>
<path d="M6175 9980 c-3 -5 -2 -10 4 -10 5 0 13 5 16 10 3 6 2 10 -4 10 -5 0
-13 -4 -16 -10z"/>
<path d="M417 9964 c-3 -4 -4 -19 -1 -34 4 -17 0 -32 -10 -43 -17 -16 -21 -37
-8 -37 4 0 25 -14 46 -32 34 -28 37 -33 20 -39 -16 -5 -13 -8 16 -16 19 -6 37
-8 40 -5 3 2 -22 28 -54 58 -56 51 -58 55 -43 72 26 29 20 102 -6 76z"/>
<path d="M375 9939 c-4 -6 -13 -8 -20 -5 -8 3 -19 -2 -25 -10 -9 -10 -9 -14
-1 -14 6 0 11 6 11 13 0 8 4 7 10 -3 8 -13 13 -12 32 8 12 12 17 22 11 22 -7
0 -15 -5 -18 -11z"/>
<path d="M6250 9942 c0 -4 8 -8 18 -9 9 0 33 -4 52 -8 23 -5 32 -4 25 2 -13
13 -95 26 -95 15z"/>
<path d="M6204 9906 c-10 -8 -17 -17 -14 -19 3 -3 14 1 24 9 11 7 17 16 15 19
-3 3 -14 -2 -25 -9z"/>
<path d="M284 9788 c-5 -7 -3 -8 5 -4 8 5 29 -10 57 -40 24 -27 44 -43 44 -35
0 15 -73 91 -88 91 -6 0 -14 -5 -18 -12z"/>
<path d="M380 9769 c0 -18 3 -29 8 -25 4 4 7 13 7 19 0 6 11 14 25 18 14 4 18
7 8 8 -9 1 -23 4 -32 7 -13 5 -16 -1 -16 -27z"/>
<path d="M230 9780 c-13 -9 -13 -10 0 -10 8 0 22 5 30 10 13 9 13 10 0 10 -8
0 -22 -5 -30 -10z"/>
<path d="M5076 9400 c7 -28 12 -35 18 -29 2 2 -2 15 -10 29 l-15 25 7 -25z"/>
<path d="M5139 9381 c24 -23 37 -29 44 -22 8 8 7 11 -2 11 -7 0 -27 10 -44 21
l-32 22 34 -32z"/>
<path d="M5320 9400 c0 -5 -6 -7 -13 -4 -8 3 -13 -3 -13 -16 0 -25 1 -25 26 0
22 22 25 30 10 30 -5 0 -10 -4 -10 -10z"/>
<path d="M5255 9329 c-4 -6 -5 -12 -2 -15 2 -3 7 2 10 11 7 17 1 20 -8 4z"/>
<path d="M5099 9288 c-6 -13 -22 -34 -34 -48 -12 -14 -31 -38 -41 -54 l-18
-29 24 8 c14 4 38 13 54 21 16 8 30 13 31 12 0 -2 6 -14 13 -28 l12 -25 -6 25
c-10 40 -21 45 -59 27 -20 -9 -38 -17 -41 -17 -3 0 15 24 40 52 25 29 46 58
46 65 0 19 -8 16 -21 -9z"/>
<path d="M5325 9250 c-3 -5 1 -10 9 -10 9 0 16 5 16 10 0 6 -4 10 -9 10 -6 0
-13 -4 -16 -10z"/>
<path d="M5183 9165 c-12 -30 -23 -43 -32 -40 -9 4 -11 0 -7 -11 3 -8 6 -18 6
-21 0 -3 7 0 15 7 8 7 15 20 15 29 0 9 9 31 20 49 11 17 16 32 11 32 -5 0 -17
-20 -28 -45z"/>
<path d="M925 9031 c-103 -64 -165 -202 -165 -367 0 -90 17 -157 53 -212 37
-55 85 -82 146 -82 121 0 201 124 205 317 2 71 5 86 24 103 23 21 26 37 16 64
-8 20 -28 21 -44 1 -11 -13 -15 -9 -33 26 -37 76 -118 99 -163 45 -56 -65 0
-166 93 -166 26 0 32 -5 37 -28 10 -42 -12 -172 -37 -222 -14 -29 -35 -52 -58
-64 -35 -19 -36 -19 -74 0 -29 14 -46 33 -65 69 -22 44 -25 62 -25 155 0 58 6
123 12 145 18 60 61 120 104 146 41 26 48 48 23 73 -19 19 -13 20 -49 -3z
m144 -173 c19 -33 9 -45 -27 -32 -19 7 -28 17 -30 37 -3 25 0 28 19 25 13 -2
30 -15 38 -30z"/>
<path d="M1627 9020 c-60 -15 -113 -47 -146 -87 -67 -81 -80 -227 -27 -318 31
-51 49 -57 69 -18 13 24 12 29 -10 62 -22 32 -24 45 -21 107 6 119 67 183 183
191 58 5 107 -17 138 -59 28 -38 34 -126 13 -183 -25 -64 -110 -135 -162 -135
-12 0 -14 28 -14 160 l0 160 -24 6 c-14 3 -30 3 -35 -1 -16 -9 -15 -507 1
-523 7 -7 22 -12 35 -12 20 0 22 5 25 66 l3 67 53 20 c68 26 136 86 170 151
22 43 27 64 27 133 0 75 -2 85 -30 125 -53 74 -155 111 -248 88z"/>
<path d="M4187 9020 c-60 -15 -113 -47 -146 -87 -67 -81 -80 -227 -27 -318 31
-51 49 -57 69 -18 13 24 12 29 -10 62 -22 32 -24 45 -21 107 6 119 67 183 183
191 58 5 107 -17 138 -59 28 -38 34 -126 13 -183 -25 -64 -110 -135 -162 -135
-12 0 -14 28 -14 160 l0 160 -24 6 c-14 3 -30 3 -35 -1 -16 -9 -15 -507 1
-523 7 -7 22 -12 35 -12 20 0 22 5 25 66 l3 67 53 20 c68 26 136 86 170 151
22 43 27 64 27 133 0 75 -2 85 -30 125 -53 74 -155 111 -248 88z"/>
<path d="M5566 8924 c-23 -22 -20 -71 3 -84 46 -24 84 -3 84 47 0 46 -55 69
-87 37z"/>
<path d="M4817 8874 c-49 -59 -54 -77 -21 -82 26 -4 129 100 121 122 -13 33
-51 17 -100 -40z"/>
<path d="M4512 8774 c-28 -19 -28 -45 -1 -70 18 -16 20 -28 17 -114 -3 -88 -2
-95 16 -95 22 0 30 23 41 118 l6 57 39 0 38 0 -20 -62 c-11 -35 -21 -91 -22
-125 -1 -52 3 -65 23 -87 30 -32 93 -35 130 -7 23 18 24 18 42 0 24 -24 77
-25 108 -3 22 16 24 16 33 0 5 -9 20 -16 32 -16 23 0 24 3 28 103 3 78 9 111
25 142 26 49 60 82 73 69 4 -5 10 -68 12 -140 3 -113 6 -135 22 -153 28 -31
86 -28 126 5 l31 27 25 -24 c19 -18 39 -24 87 -27 53 -3 67 0 97 20 l36 25 17
-24 c21 -28 80 -32 115 -7 l22 15 0 -180 0 -181 23 0 c43 0 47 15 47 175 l0
151 35 -4 c23 -3 46 3 70 17 20 12 46 21 58 21 12 0 42 9 66 20 l44 20 14 -20
c35 -49 132 -66 200 -33 44 21 82 78 86 129 2 33 -1 39 -20 42 -18 3 -24 -4
-32 -36 -16 -59 -54 -92 -106 -92 -31 0 -47 6 -64 24 l-23 24 24 12 c33 18 78
61 94 92 20 38 18 111 -3 137 -68 81 -191 -22 -197 -164 -3 -62 -25 -95 -62
-95 -21 0 -22 3 -14 26 17 43 12 165 -8 204 -29 59 -98 75 -144 33 -17 -15
-19 -15 -37 1 -11 10 -27 16 -36 14 -13 -2 -16 -22 -18 -123 -2 -137 -20 -189
-60 -183 -21 3 -22 7 -25 145 -2 132 -4 143 -23 154 -42 22 -49 7 -49 -106 0
-113 -11 -150 -52 -179 -35 -25 -94 -20 -123 9 -25 24 -30 47 -25 120 6 96 78
152 95 74 7 -31 23 -37 43 -17 30 30 1 97 -48 113 -35 11 -89 -14 -120 -56
-32 -45 -54 -125 -47 -172 6 -44 -18 -89 -46 -85 -21 3 -22 8 -27 141 -5 131
-6 140 -29 158 -38 31 -75 21 -123 -35 l-27 -31 -1 26 c0 30 -21 52 -45 47
-14 -2 -17 -20 -18 -113 -2 -123 -23 -187 -63 -193 -29 -4 -34 18 -34 164 0
127 -7 150 -45 142 -14 -2 -17 -20 -18 -118 -2 -119 -13 -162 -49 -184 -25
-15 -52 4 -56 39 -2 15 6 72 19 126 26 116 23 125 -54 131 -40 3 -59 11 -79
31 -32 31 -36 32 -66 11z m1344 -92 c23 -15 34 -52 34 -112 0 -76 -21 -130
-50 -130 -12 0 -30 -5 -41 -10 -18 -10 -19 -6 -19 100 0 104 1 112 25 135 26
27 33 29 51 17z m308 -45 c0 -35 -6 -53 -24 -72 -13 -14 -28 -25 -33 -25 -15
0 -2 96 17 125 25 38 41 26 40 -28z"/>
<path d="M2010 8731 c-23 -12 -45 -36 -63 -72 -25 -47 -28 -63 -25 -121 4 -75
21 -107 78 -145 43 -30 121 -31 168 -3 l33 20 28 -21 c29 -21 81 -23 124 -5
16 8 17 -3 17 -143 0 -192 12 -221 89 -221 57 0 101 86 81 159 -6 22 -25 61
-44 88 l-33 48 40 46 c39 45 40 46 58 28 29 -29 90 -25 119 6 l24 26 23 -26
c34 -36 82 -34 126 5 31 27 36 28 48 14 38 -46 139 -59 195 -25 30 18 31 18
43 -1 7 -12 21 -18 34 -16 21 3 22 9 27 108 6 111 17 146 63 189 14 12 30 20
36 16 7 -4 11 -54 11 -134 0 -115 2 -131 21 -155 29 -36 85 -36 125 0 17 16
30 22 32 15 7 -20 59 -41 101 -41 31 0 49 7 74 30 26 23 44 30 75 30 70 0 137
80 98 118 -12 13 -18 13 -30 2 -9 -7 -16 -18 -16 -25 0 -18 -34 -45 -56 -45
-17 0 -19 7 -16 79 4 91 -13 145 -52 162 -20 10 -30 9 -50 -5 -53 -34 -54
-147 -1 -227 27 -41 19 -59 -25 -59 -47 0 -65 32 -65 119 0 61 4 84 23 114 26
45 27 60 7 77 -37 31 -94 -79 -102 -199 -6 -80 -21 -111 -55 -111 -16 0 -18
10 -18 120 0 137 -13 183 -53 194 -36 9 -70 -7 -101 -46 l-26 -33 0 27 c0 29
-31 54 -56 44 -11 -4 -14 -29 -14 -111 0 -113 -11 -150 -52 -179 -29 -20 -87
-20 -116 0 -23 16 -30 44 -10 44 23 0 81 54 99 94 32 71 20 135 -31 156 -82
34 -170 -73 -170 -209 0 -63 -19 -101 -51 -101 -18 0 -19 8 -19 138 0 124 -2
141 -19 156 -11 10 -27 16 -36 14 -13 -2 -16 -22 -18 -118 -2 -122 -16 -168
-57 -190 -32 -17 -60 19 -60 78 0 42 17 135 36 200 6 19 3 22 -24 22 -40 0
-48 -15 -68 -137 -20 -116 -63 -213 -96 -213 -4 0 -8 58 -8 130 0 120 -1 130
-21 140 -37 20 -44 8 -41 -71 4 -95 -18 -144 -63 -144 -86 0 -58 187 35 236
19 11 49 19 67 19 26 0 33 4 33 20 0 48 -78 48 -153 0 -53 -33 -93 -106 -103
-188 -8 -63 -37 -92 -93 -92 -39 0 -81 23 -81 44 0 7 16 20 35 29 51 24 88 87
89 149 1 43 -3 53 -27 74 -34 29 -51 30 -97 5z m55 -62 c13 -40 -35 -129 -69
-129 -19 0 6 111 30 135 21 20 31 19 39 -6z m929 -27 c-1 -42 -24 -89 -50 -99
-24 -9 -27 2 -15 58 19 89 67 119 65 41z m661 -5 c4 -18 5 -51 3 -72 l-4 -40
-17 37 c-17 38 -23 89 -10 101 13 14 22 6 28 -26z m-1189 -422 c17 -40 19
-121 3 -131 -21 -12 -32 15 -37 90 -5 85 8 101 34 41z"/>
<path d="M1875 7790 c0 -47 4 -80 10 -80 6 0 9 31 7 80 -2 44 -7 80 -10 80 -4
0 -7 -36 -7 -80z"/>
<path d="M2235 7795 c1 -41 4 -78 8 -81 4 -4 7 29 7 74 0 45 -4 82 -8 82 -4 0
-7 -34 -7 -75z"/>
<path d="M775 7835 c-14 -13 -25 -36 -25 -50 0 -28 40 -75 64 -75 23 0 46 11
46 23 0 7 -4 7 -12 -1 -31 -31 -78 0 -78 53 0 53 47 84 78 53 8 -8 12 -8 12
-1 0 12 -23 23 -46 23 -8 0 -26 -11 -39 -25z"/>
<path d="M2679 7834 c-8 -65 -9 -82 -4 -101 3 -13 13 -23 21 -23 13 0 14 3 5
14 -7 8 -11 35 -10 60 2 25 0 49 -4 52 -4 4 -8 3 -8 -2z"/>
<path d="M1010 7766 c0 -31 5 -56 10 -56 6 0 10 22 10 49 0 28 -4 53 -10 56
-6 4 -10 -15 -10 -49z"/>
<path d="M1045 7810 c-4 -6 -1 -9 7 -8 9 2 14 -11 16 -44 4 -60 22 -63 22 -5
0 52 -27 86 -45 57z"/>
<path d="M1105 7811 c-3 -7 3 -11 15 -11 20 0 22 -4 18 -45 -2 -27 1 -45 7
-45 7 0 9 20 5 52 -4 39 -10 54 -22 56 -9 2 -19 -2 -23 -7z"/>
<path d="M1277 7808 c7 -8 12 -32 10 -53 -1 -21 3 -40 8 -42 7 -2 9 15 5 49
-3 33 -10 53 -20 56 -12 4 -13 3 -3 -10z"/>
<path d="M1393 7807 c14 -10 17 -25 15 -80 -2 -40 1 -67 7 -67 14 0 6 143 -8
152 -20 13 -32 9 -14 -5z"/>
<path d="M1460 7770 c0 -53 19 -75 43 -51 9 9 8 11 -5 6 -16 -6 -18 -1 -18 38
0 25 -4 49 -10 52 -6 4 -10 -13 -10 -45z"/>
<path d="M1520 7771 c0 -28 5 -53 10 -56 6 -4 10 15 10 49 0 31 -4 56 -10 56
-5 0 -10 -22 -10 -49z"/>
<path d="M1617 7808 c7 -8 12 -32 10 -53 -1 -21 3 -40 8 -42 7 -2 9 15 5 49
-3 33 -10 53 -20 56 -12 4 -13 3 -3 -10z"/>
<path d="M1690 7767 c0 -31 4 -57 8 -57 9 0 8 98 -2 107 -3 3 -6 -19 -6 -50z"/>
<path d="M1725 7810 c-3 -5 -1 -10 4 -10 6 0 11 5 11 10 0 6 -2 10 -4 10 -3 0
-8 -4 -11 -10z"/>
<path d="M1808 7813 c23 -9 13 -33 -14 -33 -24 0 -25 2 -13 17 12 14 12 16 0
12 -22 -8 -31 -43 -17 -70 14 -29 48 -36 67 -13 13 16 12 16 -6 6 -24 -12 -55
1 -55 23 0 10 11 15 35 15 22 0 35 5 35 13 0 16 -20 37 -34 36 -6 0 -5 -3 2
-6z"/>
<path d="M1969 7807 c6 -8 10 -31 8 -52 -1 -22 3 -40 10 -42 8 -3 10 9 6 39
-6 57 -10 68 -24 68 -8 0 -9 -4 0 -13z"/>
<path d="M2050 7816 c0 -2 9 -6 20 -9 11 -3 18 -1 14 4 -5 9 -34 13 -34 5z"/>
<path d="M2338 7810 c17 -7 22 -17 22 -43 0 -18 -6 -39 -12 -47 -7 -8 -3 -6
10 4 12 11 22 29 22 41 0 24 -29 55 -51 54 -8 0 -4 -4 9 -9z"/>
<path d="M2489 7807 c6 -8 10 -31 8 -52 -1 -22 3 -40 10 -42 8 -3 10 9 6 39
-6 57 -10 68 -24 68 -8 0 -9 -4 0 -13z"/>
<path d="M2550 7778 c0 -51 21 -81 43 -59 9 10 9 12 -3 9 -11 -2 -16 8 -18 37
-5 58 -22 69 -22 13z"/>
<path d="M2619 7813 c-3 -31 0 -95 5 -100 3 -4 6 19 6 50 0 32 -2 57 -5 57 -3
0 -5 -3 -6 -7z"/>
<path d="M2870 7766 c0 -31 5 -56 10 -56 6 0 10 22 10 49 0 28 -4 53 -10 56
-6 4 -10 -15 -10 -49z"/>
<path d="M2905 7810 c-3 -5 -1 -10 4 -10 6 0 11 5 11 10 0 6 -2 10 -4 10 -3 0
-8 -4 -11 -10z"/>
<path d="M892 7798 c-28 -28 0 -88 41 -88 16 0 47 36 47 55 0 6 -7 20 -15 31
-15 18 -15 18 -9 -8 9 -41 -4 -70 -29 -66 -19 3 -22 10 -22 46 0 23 0 42 0 42
-1 0 -6 -5 -13 -12z"/>
<path d="M1338 7785 c-9 -19 -8 -29 6 -50 9 -14 24 -25 33 -25 14 0 13 3 -5
16 -24 17 -29 53 -10 72 9 9 9 12 0 12 -7 0 -17 -11 -24 -25z"/>
<path d="M1935 7799 c-4 -6 -5 -12 -2 -15 2 -3 7 2 10 11 7 17 1 20 -8 4z"/>
<path d="M2031 7792 c-1 -15 7 -26 24 -34 28 -13 30 -18 13 -37 -11 -11 -10
-13 2 -9 27 8 24 47 -4 59 -14 7 -27 19 -29 28 -3 10 -5 8 -6 -7z"/>
<path d="M2172 7798 c-28 -28 -2 -89 36 -87 12 0 11 3 -6 12 -20 9 -23 17 -20
49 2 21 3 38 3 38 -1 0 -6 -5 -13 -12z"/>
<path d="M2288 7785 c-9 -19 -8 -29 6 -50 9 -14 21 -25 27 -25 6 0 3 8 -6 17
-12 11 -15 26 -12 50 7 39 1 43 -15 8z"/>
<path d="M2752 7798 c-28 -28 0 -88 41 -88 16 0 47 36 47 55 0 6 -7 20 -15 31
-15 18 -15 18 -9 -8 9 -41 -4 -70 -29 -66 -19 3 -22 10 -22 46 0 23 0 42 0 42
-1 0 -6 -5 -13 -12z"/>
<path d="M5555 7792 c3 -9 3 -13 -1 -9 -11 10 -34 -13 -34 -35 0 -16 4 -14 29
11 24 25 30 27 35 14 4 -9 9 -14 11 -11 10 10 -7 36 -26 41 -16 4 -19 2 -14
-11z"/>
<path d="M5700 7791 c0 -6 7 -11 15 -11 12 0 13 -4 5 -19 -5 -11 -10 -24 -10
-30 0 -16 65 -24 90 -11 30 16 21 20 -22 11 -51 -12 -66 1 -32 28 31 24 30 26
-13 36 -21 4 -33 3 -33 -4z"/>
<path d="M5421 7760 c0 -19 3 -42 9 -50 15 -24 17 -8 4 40 -12 45 -12 45 -13
10z"/>
<path d="M5645 7769 c-16 -10 -34 -21 -40 -23 -5 -2 -8 -6 -5 -9 3 -4 26 7 50
23 25 17 41 30 35 29 -5 0 -23 -9 -40 -20z"/>
<path d="M1236 7742 c-10 -16 1 -32 22 -32 11 0 13 3 6 8 -6 4 -13 14 -16 22
-3 10 -6 11 -12 2z"/>
<path d="M1572 7733 c2 -10 12 -19 23 -20 11 -2 14 0 8 3 -7 3 -13 12 -13 20
0 8 -5 14 -11 14 -6 0 -9 -8 -7 -17z"/>
<path d="M1928 7745 c-11 -11 3 -35 21 -35 10 0 12 3 5 8 -6 4 -13 13 -15 20
-3 7 -7 10 -11 7z"/>
<path d="M2446 7742 c-10 -16 1 -32 22 -32 11 0 13 3 6 8 -6 4 -13 14 -16 22
-3 10 -6 11 -12 2z"/>
<path d="M5830 7682 c0 -4 10 -9 22 -9 18 -2 20 0 8 7 -18 12 -30 13 -30 2z"/>
<path d="M5890 7625 c-16 -19 0 -19 26 0 16 12 16 14 3 15 -9 0 -22 -7 -29
-15z"/>
<path d="M5281 7569 c-6 -18 -10 -53 -10 -78 l2 -46 7 58 c8 65 16 79 33 57
15 -20 43 -15 50 9 3 14 -1 16 -24 13 -17 -3 -29 0 -29 7 0 23 -18 10 -29 -20z"/>
<path d="M5900 7596 c0 -2 7 -7 16 -10 8 -3 12 -2 9 4 -6 10 -25 14 -25 6z"/>
<path d="M5950 7545 c13 -14 32 -25 42 -25 11 0 16 -4 13 -10 -3 -5 -14 -10
-24 -10 -30 0 -40 -21 -27 -59 7 -19 18 -37 25 -39 9 -3 8 5 -4 28 -18 34 -10
54 26 65 24 8 25 35 1 35 -11 0 -27 9 -37 20 -10 11 -23 20 -28 20 -6 0 0 -11
13 -25z"/>
<path d="M5502 7477 c3 -15 1 -30 -3 -33 -23 -14 -6 -26 29 -20 20 3 43 7 50
8 14 2 17 18 3 18 -5 0 -20 -4 -33 -9 -21 -8 -24 -6 -26 17 -1 14 -7 31 -13
37 -8 7 -10 2 -7 -18z"/>
<path d="M5377 7453 c-15 -8 -34 -28 -43 -46 l-17 -32 -15 23 c-8 12 -22 22
-31 22 -12 0 -13 2 -3 9 11 6 10 9 -5 13 -10 3 -24 3 -30 1 -22 -8 -14 -21 16
-28 16 -3 37 -15 46 -25 17 -19 17 -25 0 -100 -4 -15 2 -10 14 15 11 22 20 47
21 56 0 20 36 53 48 45 12 -7 27 11 35 42 6 25 3 26 -36 5z"/>
<path d="M5637 7421 c-19 -32 -23 -66 -7 -56 6 4 8 11 4 16 -9 15 26 61 42 55
8 -3 14 -1 14 4 0 22 -37 8 -53 -19z"/>
<path d="M5700 7428 c1 -2 7 -25 14 -53 10 -37 16 -45 21 -32 6 15 -19 87 -30
87 -3 0 -5 -1 -5 -2z"/>
<path d="M534 7394 c-18 -14 -18 -14 6 -3 31 14 36 19 24 19 -6 0 -19 -7 -30
-16z"/>
<path d="M840 7400 c8 -5 20 -10 25 -10 6 0 3 5 -5 10 -8 5 -19 10 -25 10 -5
0 -3 -5 5 -10z"/>
<path d="M910 7365 c19 -14 36 -25 39 -25 10 0 -53 49 -63 50 -6 0 5 -11 24
-25z"/>
<path d="M5929 7370 c-4 -30 -2 -70 4 -70 4 0 7 9 7 20 0 13 12 25 35 34 19 8
35 16 35 18 0 6 -80 4 -81 -2z"/>
<path d="M480 7355 c-7 -9 -8 -15 -2 -15 5 0 12 7 16 15 3 8 4 15 2 15 -2 0
-9 -7 -16 -15z"/>
<path d="M5761 7315 c-10 -28 -10 -37 1 -48 10 -12 15 -12 28 1 13 14 15 13
18 -8 2 -14 -3 -27 -12 -32 -9 -5 -16 -14 -16 -20 0 -7 5 -6 15 2 23 19 18 -4
-5 -25 -24 -21 -26 -40 -5 -31 29 11 14 -11 -54 -81 -57 -59 -65 -72 -50 -76
13 -3 19 0 19 10 0 8 30 47 68 85 75 78 85 94 52 83 -23 -7 -23 -7 -4 18 11
14 22 23 27 20 14 -8 7 22 -12 54 -14 22 -25 30 -39 26 -16 -4 -18 0 -14 26 6
41 -1 39 -17 -4z"/>
<path d="M979 7313 c23 -35 41 -50 41 -35 0 4 -14 21 -32 38 l-31 29 22 -32z"/>
<path d="M5423 7239 c-1 -48 2 -77 7 -74 11 7 12 111 2 137 -4 9 -8 -19 -9
-63z"/>
<path d="M5875 7294 c-14 -14 -21 -54 -10 -54 3 0 10 12 15 26 9 22 13 24 25
14 8 -7 15 -20 15 -28 0 -11 3 -13 10 -6 14 14 5 36 -20 51 -15 10 -22 10 -35
-3z"/>
<path d="M5329 7254 c-16 -20 -1 -48 29 -52 25 -4 39 32 22 53 -16 19 -34 19
-51 -1z m38 -28 c-4 -9 -11 -16 -17 -16 -11 0 -14 33 -3 43 11 11 26 -10 20
-27z"/>
<path d="M5282 7240 c0 -14 2 -19 5 -12 2 6 2 18 0 25 -3 6 -5 1 -5 -13z"/>
<path d="M5563 7244 c4 -4 0 -18 -9 -31 -12 -19 -13 -27 -3 -39 16 -20 37 -17
44 6 9 27 -2 57 -23 65 -9 3 -13 3 -9 -1z m17 -49 c0 -8 -4 -15 -10 -15 -5 0
-10 7 -10 15 0 8 5 15 10 15 6 0 10 -7 10 -15z"/>
<path d="M390 7209 c0 -5 5 -7 10 -4 6 3 10 8 10 11 0 2 -4 4 -10 4 -5 0 -10
-5 -10 -11z"/>
<path d="M5282 7150 c0 -14 2 -19 5 -12 2 6 2 18 0 25 -3 6 -5 1 -5 -13z"/>
<path d="M5290 7109 c-1 -48 47 -116 103 -146 39 -20 141 -23 160 -4 10 11 4
12 -33 5 -112 -20 -178 17 -215 122 -8 21 -14 32 -15 23z"/>
<path d="M5415 7029 c-8 -12 11 -29 33 -29 19 0 10 34 -10 38 -9 2 -19 -2 -23
-9z"/>
<path d="M1066 7015 c-3 -9 -6 -26 -6 -38 0 -11 -6 -28 -13 -36 -13 -15 -39
-91 -32 -91 13 0 48 78 55 122 8 55 7 71 -4 43z"/>
<path d="M5605 6980 c-3 -6 1 -7 9 -4 18 7 21 14 7 14 -6 0 -13 -4 -16 -10z"/>
<path d="M5690 6948 c0 -23 3 -29 9 -19 8 12 4 51 -5 51 -2 0 -4 -15 -4 -32z"/>
<path d="M5610 6883 c-19 -9 -51 -19 -70 -22 -27 -5 -35 -11 -34 -27 0 -11 -5
-21 -11 -21 -13 0 -13 25 -2 45 6 8 3 10 -7 6 -9 -3 -16 -15 -16 -25 0 -25
-16 -24 -23 2 -3 12 0 22 9 26 8 3 14 9 14 14 0 16 -38 -10 -45 -29 -3 -11 4
-39 15 -63 11 -24 20 -54 20 -67 0 -31 19 -24 45 15 28 44 69 51 99 16 13 -15
28 -23 34 -19 17 11 15 29 -3 22 -19 -7 -21 24 -2 43 6 6 12 15 12 19 1 4 6
17 12 28 10 16 9 25 0 37 -11 14 -15 14 -47 0z m-55 -83 c-3 -5 -11 -10 -16
-10 -6 0 -7 5 -4 10 3 6 11 10 16 10 6 0 7 -4 4 -10z m-51 -9 c3 -5 -3 -11
-15 -14 -16 -4 -18 -3 -8 9 13 16 16 17 23 5z m-10 -46 c-9 -14 -18 -25 -21
-25 -8 0 2 35 12 42 21 15 25 7 9 -17z"/>
<path d="M5691 6869 c0 -15 6 -32 14 -39 16 -13 21 0 6 16 -5 5 -11 18 -14 29
-4 16 -5 14 -6 -6z"/>
<path d="M5306 6855 c-19 -19 -22 -34 -36 -135 -5 -41 -13 -92 -19 -112 -5
-21 -6 -38 -2 -38 7 0 28 87 37 155 9 75 16 100 32 118 20 22 9 33 -12 12z"/>
<path d="M461 6843 c7 -12 15 -20 18 -17 3 2 -3 12 -13 22 -17 16 -18 16 -5
-5z"/>
<path d="M5635 6780 c3 -5 11 -10 16 -10 6 0 7 5 4 10 -3 6 -11 10 -16 10 -6
0 -7 -4 -4 -10z"/>
<path d="M560 6761 c8 -5 35 -11 60 -15 30 -4 36 -3 20 3 -41 13 -97 22 -80
12z"/>
<path d="M825 6740 c-16 -4 -59 -6 -95 -4 l-65 3 60 -9 c53 -7 155 3 155 16 0
5 -18 3 -55 -6z"/>
<path d="M5810 6746 c0 -4 28 -35 61 -69 44 -44 53 -50 31 -22 -34 45 -92 103
-92 91z"/>
<path d="M5388 6606 c-6 -32 10 -118 21 -111 9 5 2 103 -9 124 -5 9 -9 5 -12
-13z"/>
<path d="M5517 6623 c-10 -17 -25 -83 -18 -83 3 0 11 20 17 45 10 43 10 53 1
38z"/>
<path d="M5940 6590 c6 -11 13 -20 16 -20 2 0 0 9 -6 20 -6 11 -13 20 -16 20
-2 0 0 -9 6 -20z"/>
<path d="M5547 6593 c-4 -3 -7 -17 -7 -31 0 -18 4 -23 16 -18 9 3 18 6 20 6 2
0 4 4 4 10 0 5 -7 7 -15 4 -8 -4 -15 -1 -15 5 0 6 7 11 16 11 8 0 12 5 9 10
-7 12 -19 13 -28 3z"/>
<path d="M5746 6523 c-9 -55 -7 -128 3 -138 5 -6 12 -68 15 -139 7 -120 6
-128 -9 -116 -35 29 -176 102 -183 95 -7 -7 -3 -10 51 -33 26 -12 46 -26 45
-32 -2 -7 6 -17 17 -23 34 -21 46 -36 39 -49 -6 -10 -5 -10 7 -1 12 10 15 8
16 -8 2 -16 -1 -17 -18 -9 -10 6 -19 15 -19 21 0 6 -4 8 -10 4 -5 -3 -16 7
-25 22 -9 15 -14 20 -11 11 3 -12 1 -15 -10 -11 -9 3 -13 12 -10 22 5 13 3 13
-8 -2 -13 -16 -14 -16 -20 -1 -4 10 -2 22 4 28 8 8 9 6 4 -7 -6 -17 -5 -18 14
-6 l22 14 -23 12 c-20 11 -23 9 -34 -15 -7 -15 -12 -22 -13 -17 0 6 -10 11
-22 12 -11 1 -24 6 -27 10 -3 5 -17 10 -30 10 -13 1 -29 7 -35 14 -8 9 -7 10
6 6 10 -4 17 -3 17 1 -5 28 3 34 32 28 27 -5 30 -4 19 8 -6 8 -24 16 -38 18
-25 3 -27 7 -30 58 -2 30 1 74 6 98 6 23 6 42 2 42 -4 0 -11 -17 -15 -37 -4
-21 -10 -51 -13 -68 -3 -16 -6 -44 -6 -62 0 -27 -2 -30 -16 -23 -10 5 -20 7
-23 4 -3 -3 -15 -3 -28 1 -16 5 -18 9 -9 15 7 4 10 15 7 24 -3 8 2 47 12 86
10 39 15 73 10 76 -5 3 -9 -2 -9 -10 0 -14 -36 7 -105 63 -6 4 -23 11 -37 14
-21 6 -30 3 -38 -14 -12 -22 -7 -49 9 -49 5 0 8 6 7 14 0 8 4 14 9 13 6 -1 10
-41 9 -97 -1 -97 11 -85 20 22 3 27 7 52 10 57 10 16 54 -1 80 -30 22 -24 24
-33 16 -54 -6 -15 -10 -43 -10 -63 0 -20 -7 -46 -15 -56 -17 -22 -20 -72 -6
-81 6 -3 4 -25 -4 -53 -19 -62 -26 -118 -29 -214 -1 -42 -4 -80 -8 -83 -3 -4
-11 10 -18 30 -19 57 -24 33 -6 -28 15 -50 15 -62 0 -132 -9 -42 -14 -79 -11
-81 6 -7 37 132 37 167 0 15 6 32 14 36 9 6 15 43 20 128 3 66 8 129 10 140 3
11 8 33 11 49 6 28 8 28 53 23 71 -9 247 -80 299 -120 17 -14 22 -25 18 -45
-3 -15 6 -2 21 28 29 61 32 96 20 251 l-7 97 27 21 c20 16 41 21 83 21 69 0
104 -9 97 -25 -10 -27 10 -33 37 -10 l29 22 -36 69 c-19 38 -35 65 -36 61 0
-4 9 -25 20 -47 23 -45 24 -96 2 -78 -24 20 -170 30 -189 14 -28 -25 -42 -36
-46 -36 -2 0 -2 36 1 80 5 84 -1 106 -12 43z m-346 -294 c0 -4 -7 -6 -15 -3
-8 4 -15 10 -15 15 0 4 7 6 15 3 8 -4 15 -10 15 -15z m93 -5 c-6 -17 -20 -18
-26 -1 -4 7 -8 3 -12 -10 -4 -13 -15 -23 -24 -23 -14 0 -14 2 -1 10 12 7 11
10 -5 17 -19 7 -18 8 5 13 43 11 69 9 63 -6z"/>
<path d="M5490 6493 c0 -43 5 -41 13 5 4 18 2 32 -3 32 -6 0 -10 -16 -10 -37z"/>
<path d="M3228 6460 c15 -16 31 -30 36 -30 5 0 -3 14 -19 30 -16 17 -32 30
-36 30 -4 0 5 -13 19 -30z"/>
<path d="M3200 6421 c0 -25 6 -27 13 -6 4 8 2 17 -3 20 -6 4 -10 -3 -10 -14z"/>
<path d="M3299 6399 c13 -11 27 -17 30 -13 7 7 -28 34 -43 34 -6 -1 0 -10 13
-21z"/>
<path d="M3425 6408 c-16 -5 -36 -12 -44 -14 -8 -2 -12 -7 -9 -10 3 -2 17 0
32 5 35 14 33 2 -5 -32 l-31 -27 31 -37 c38 -46 39 -57 4 -48 -27 6 -27 6 -8
-9 23 -18 55 -21 55 -6 0 14 -21 50 -44 78 l-20 22 44 45 c46 47 45 50 -5 33z"/>
<path d="M5526 6404 c-4 -10 -2 -22 3 -27 14 -14 43 0 39 20 -4 24 -34 28 -42
7z m25 -17 c-13 -13 -26 -3 -16 12 3 6 11 8 17 5 6 -4 6 -10 -1 -17z"/>
<path d="M3200 6379 c0 -5 5 -7 10 -4 6 3 10 8 10 11 0 2 -4 4 -10 4 -5 0 -10
-5 -10 -11z"/>
<path d="M3155 6299 c-59 -70 -65 -82 -31 -66 13 6 20 15 14 18 -5 4 8 24 31
47 23 22 41 45 41 51 0 16 0 16 -55 -50z"/>
<path d="M5960 6289 c0 -5 5 -7 10 -4 6 3 10 8 10 11 0 2 -4 4 -10 4 -5 0 -10
-5 -10 -11z"/>
<path d="M3198 6253 c7 -3 16 -2 19 1 4 3 -2 6 -13 5 -11 0 -14 -3 -6 -6z"/>
<path d="M3325 6230 c-4 -16 -9 -30 -13 -30 -3 0 -19 12 -35 28 -32 29 -28 12
6 -25 22 -25 47 -30 47 -10 0 6 7 24 14 40 12 22 13 27 1 27 -7 0 -16 -13 -20
-30z"/>
<path d="M5519 6218 c-5 -18 -6 -38 -1 -34 7 8 12 36 6 36 -2 0 -4 -1 -5 -2z"/>
<path d="M5551 6191 c-8 -5 -9 -11 -3 -15 5 -3 12 1 16 9 6 17 6 18 -13 6z"/>
<path d="M5947 6180 c3 -11 7 -20 9 -20 2 0 4 9 4 20 0 11 -4 20 -9 20 -5 0
-7 -9 -4 -20z"/>
<path d="M5251 6164 c0 -11 3 -14 6 -6 3 7 2 16 -1 19 -3 4 -6 -2 -5 -13z"/>
<path d="M590 6161 c0 -5 -8 -11 -17 -13 -15 -3 -14 -5 4 -10 22 -6 41 16 23
27 -6 4 -10 2 -10 -4z"/>
<path d="M5250 6102 c0 -23 4 -42 9 -42 6 0 7 17 4 38 -8 51 -13 53 -13 4z"/>
<path d="M557 6085 c-9 -19 -15 -35 -12 -35 7 0 37 61 33 66 -3 2 -12 -12 -21
-31z"/>
<path d="M5941 6094 c0 -11 3 -14 6 -6 3 7 2 16 -1 19 -3 4 -6 -2 -5 -13z"/>
<path d="M385 6080 c11 -5 29 -9 40 -9 l20 0 -20 9 c-11 5 -29 9 -40 9 l-20 0
20 -9z"/>
<path d="M313 6033 c-1 -10 -15 -49 -32 -87 -18 -38 -30 -70 -28 -72 4 -4 64
123 72 154 4 12 3 22 -2 22 -5 0 -9 -8 -10 -17z"/>
<path d="M5262 6015 c0 -16 2 -22 5 -12 2 9 2 23 0 30 -3 6 -5 -1 -5 -18z"/>
<path d="M5925 6029 c-4 -6 -5 -12 -2 -15 2 -3 7 2 10 11 7 17 1 20 -8 4z"/>
<path d="M572 5985 c15 -16 30 -26 33 -23 4 3 -9 16 -27 28 l-33 23 27 -28z"/>
<path d="M5897 5965 c-9 -19 -13 -35 -9 -35 8 0 34 61 29 67 -2 1 -11 -13 -20
-32z"/>
<path d="M5716 5963 c-2 -10 -8 -43 -11 -73 -9 -66 6 -59 15 8 4 26 11 55 15
65 4 10 3 17 -3 17 -6 0 -13 -8 -16 -17z"/>
<path d="M585 5940 c-8 -13 15 -13 35 0 12 8 11 10 -7 10 -12 0 -25 -4 -28
-10z"/>
<path d="M506 5928 c-9 -29 -17 -73 -13 -68 13 14 35 80 26 80 -5 0 -11 -6
-13 -12z"/>
<path d="M335 5919 c-11 -17 -2 -18 19 -3 17 12 17 14 4 14 -9 0 -20 -5 -23
-11z"/>
<path d="M390 5921 c0 -6 4 -11 8 -11 5 0 23 -14 40 -31 18 -18 35 -29 38 -26
3 3 -1 10 -8 16 -59 49 -78 61 -78 52z"/>
<path d="M5866 5904 c-4 -9 -4 -19 -1 -22 2 -3 7 3 11 12 4 9 4 19 1 22 -2 3
-7 -3 -11 -12z"/>
<path d="M5843 5858 c-12 -14 -33 -79 -59 -181 -9 -37 -22 -71 -28 -76 -24
-19 -61 -16 -88 8 -24 21 -27 31 -24 66 2 25 13 56 28 76 27 37 42 79 27 79
-5 0 -9 -8 -9 -18 0 -10 -16 -37 -35 -59 -44 -52 -48 -106 -11 -146 45 -49
107 -46 142 8 16 25 48 154 40 162 -3 3 4 25 14 49 20 45 20 54 3 32z"/>
<path d="M5841 5775 c0 -11 4 -27 9 -35 9 -13 10 -13 9 0 0 8 -4 24 -9 35 l-9
20 0 -20z"/>
<path d="M5861 5704 c0 -11 3 -14 6 -6 3 7 2 16 -1 19 -3 4 -6 -2 -5 -13z"/>
<path d="M5487 5653 c-2 -4 -12 -41 -21 -81 -18 -79 -24 -146 -31 -352 -4
-127 -16 -203 -33 -214 -10 -6 -290 22 -303 30 -5 3 -9 1 -9 -5 0 -5 8 -11 18
-13 35 -7 -93 -85 -183 -112 -36 -11 -40 -14 -15 -10 19 3 66 7 104 10 38 3
101 16 140 29 39 13 86 26 104 30 17 4 32 11 32 16 0 5 5 9 10 9 6 0 10 -6 10
-14 0 -21 24 -26 53 -11 26 13 26 13 20 -18 -3 -18 -12 -47 -19 -66 -10 -25
-11 -37 -3 -47 13 -15 111 -54 137 -54 10 0 26 -6 36 -13 18 -13 17 -17 -15
-75 -59 -106 -32 -102 170 25 20 13 45 27 56 32 16 7 17 10 5 14 -37 13 -63
15 -90 7 -23 -7 -30 -5 -30 6 0 16 -21 19 -36 4 -11 -11 -44 -3 -44 10 0 5
-26 12 -57 16 -47 5 -103 23 -121 39 -2 1 9 28 23 60 22 52 38 123 50 225 3
19 7 103 10 185 3 84 13 192 24 245 18 89 20 113 8 93z m-294 -662 c16 -2 6
-18 -18 -29 -34 -16 -40 -15 -25 3 6 8 9 18 6 24 -3 5 2 8 11 6 10 -2 21 -4
26 -4z m-99 -36 c3 -8 1 -15 -4 -15 -6 0 -10 7 -10 15 0 8 2 15 4 15 2 0 6 -7
10 -15z m470 -284 c7 -11 -43 -45 -52 -35 -4 4 -1 9 6 11 6 3 9 10 6 15 -4 7
-2 8 4 4 7 -4 12 -2 12 3 0 13 17 14 24 2z"/>
<path d="M5871 5624 c0 -11 3 -14 6 -6 3 7 2 16 -1 19 -3 4 -6 -2 -5 -13z"/>
<path d="M5265 5609 c-40 -109 -53 -161 -36 -143 11 11 52 146 46 152 -3 3 -7
-1 -10 -9z"/>
<path d="M6371 5514 c-20 -26 -29 -64 -13 -64 4 0 14 5 22 11 11 8 12 12 3 16
-17 6 -16 18 3 38 9 9 14 18 11 21 -2 3 -14 -7 -26 -22z"/>
<path d="M2490 5476 c0 -2 7 -9 15 -16 13 -11 14 -10 9 4 -5 14 -24 23 -24 12z"/>
<path d="M6225 5450 c-3 -5 -2 -10 4 -10 5 0 13 5 16 10 3 6 2 10 -4 10 -5 0
-13 -4 -16 -10z"/>
<path d="M6284 5451 c3 -5 -6 -12 -22 -16 -15 -4 -22 -9 -16 -12 17 -6 66 16
59 27 -3 5 -11 10 -16 10 -6 0 -8 -4 -5 -9z"/>
<path d="M6440 5450 c-13 -9 -13 -11 0 -20 23 -15 64 -8 68 13 3 12 -3 17 -20
16 -21 0 -21 -1 -4 -8 14 -5 16 -10 7 -15 -16 -10 -44 1 -36 14 8 12 4 12 -15
0z"/>
<path d="M5216 5439 c-32 -100 -78 -212 -117 -290 -53 -103 -57 -119 -33 -119
8 0 12 5 9 11 -4 6 13 52 38 102 50 101 122 296 113 304 -3 3 -8 0 -10 -8z"/>
<path d="M6360 5421 c0 -14 18 -23 31 -15 8 4 7 9 -2 15 -18 11 -29 11 -29 0z"/>
<path d="M6347 5394 c-4 -4 -7 -14 -7 -23 0 -11 3 -12 11 -4 6 6 10 16 7 23
-2 6 -7 8 -11 4z"/>
<path d="M6404 5376 c-7 -20 12 -46 34 -46 13 0 13 2 -3 13 -14 11 -15 16 -5
22 7 4 16 2 21 -6 4 -7 11 -10 15 -6 10 9 -5 23 -34 32 -15 4 -24 2 -28 -9z"/>
<path d="M6322 5355 c4 -4 1 -14 -7 -21 -15 -16 -9 -54 10 -54 7 0 19 8 26 17
12 15 12 16 -3 11 -12 -5 -16 -1 -13 18 1 13 -3 27 -9 31 -6 3 -8 3 -4 -2z"/>
<path d="M2200 5310 c8 -5 20 -10 25 -10 6 0 3 5 -5 10 -8 5 -19 10 -25 10 -5
0 -3 -5 5 -10z"/>
<path d="M2571 5302 c-1 -14 27 -72 35 -72 2 0 -2 12 -9 28 -8 15 -17 34 -20
42 -4 10 -6 11 -6 2z"/>
<path d="M2656 5277 c3 -10 9 -15 12 -12 3 3 0 11 -7 18 -10 9 -11 8 -5 -6z"/>
<path d="M7000 5254 l-35 -34 32 15 c26 13 50 42 41 50 -2 2 -19 -13 -38 -31z"/>
<path d="M7095 5281 c-6 -10 21 -41 35 -41 14 0 21 18 10 25 -5 3 -10 1 -10
-6 0 -8 -4 -8 -15 1 -8 7 -12 16 -9 21 3 5 3 9 0 9 -3 0 -7 -4 -11 -9z"/>
<path d="M3059 5270 c-37 -11 -78 -40 -91 -64 -7 -14 3 -8 30 17 23 20 51 37
61 37 11 0 23 5 26 10 3 6 5 10 3 9 -2 0 -15 -4 -29 -9z"/>
<path d="M7200 5269 c0 -5 5 -7 10 -4 6 3 10 8 10 11 0 2 -4 4 -10 4 -5 0 -10
-5 -10 -11z"/>
<path d="M3160 5265 c0 -3 18 -14 40 -25 93 -47 105 -175 26 -267 -11 -13 -15
-23 -10 -23 14 0 48 49 62 89 32 91 -7 183 -90 219 -16 6 -28 10 -28 7z"/>
<path d="M6241 5234 c-12 -20 -20 -38 -18 -40 2 -2 14 14 26 36 28 50 21 53
-8 4z"/>
<path d="M7200 5203 c0 -21 3 -24 9 -14 5 8 7 20 4 28 -8 21 -13 15 -13 -14z"/>
<path d="M4480 5195 c-13 -16 -7 -45 9 -45 5 0 13 5 16 10 3 6 1 10 -4 10 -6
0 -11 5 -11 11 0 6 7 8 16 5 10 -4 14 -1 12 6 -6 18 -24 20 -38 3z"/>
<path d="M6939 5193 c-13 -16 -12 -17 4 -4 9 7 17 15 17 17 0 8 -8 3 -21 -13z"/>
<path d="M2937 5163 c-2 -4 -7 -25 -11 -45 -8 -45 11 -97 48 -125 14 -12 26
-26 26 -32 0 -6 5 -11 10 -11 18 0 11 16 -21 46 -45 41 -60 82 -49 129 9 38 7
55 -3 38z"/>
<path d="M4543 5159 c-13 -5 -23 -13 -23 -18 0 -5 -9 -7 -20 -4 -25 7 -50 -13
-50 -39 0 -26 51 -21 65 7 7 15 18 19 43 17 26 -3 32 0 32 16 0 24 -18 32 -47
21z m37 -19 c0 -5 -12 -10 -27 -9 -25 0 -26 1 -8 9 27 12 35 12 35 0z m-70
-29 c0 -11 -39 -25 -47 -18 -3 3 -2 10 2 16 8 13 45 15 45 2z"/>
<path d="M6205 5159 c-4 -6 -5 -12 -2 -15 2 -3 7 2 10 11 7 17 1 20 -8 4z"/>
<path d="M7199 5163 c0 -5 -2 -16 -4 -25 -2 -10 1 -18 6 -18 5 0 9 11 9 25 0
22 -9 37 -11 18z"/>
<path d="M2736 5147 c3 -10 9 -15 12 -12 3 3 0 11 -7 18 -10 9 -11 8 -5 -6z"/>
<path d="M6880 5140 l-25 -21 28 12 c15 7 27 16 27 21 0 11 -1 10 -30 -12z"/>
<path d="M4393 5143 c-25 -9 -14 -33 15 -32 l27 1 -25 8 c-24 8 -23 8 8 9 19
1 31 5 27 11 -6 10 -31 12 -52 3z"/>
<path d="M6179 5104 c-6 -16 -17 -45 -24 -64 l-12 -35 -79 -1 c-109 -2 -105 0
-95 -28 9 -21 14 -94 12 -157 -1 -30 -34 -44 -136 -58 l-60 -9 70 0 c74 -1
129 18 149 50 7 12 6 40 -6 100 -9 46 -15 85 -13 88 2 3 35 3 75 2 l71 -4 -6
-29 c-4 -18 -3 -29 4 -29 6 0 11 9 11 19 0 11 4 22 9 25 4 3 11 24 15 47 4 23
14 55 22 71 9 16 13 32 10 35 -3 3 -11 -7 -17 -23z"/>
<path d="M5950 5105 c0 -8 4 -15 10 -15 5 0 7 7 4 15 -4 8 -8 15 -10 15 -2 0
-4 -7 -4 -15z"/>
<path d="M7182 5083 c-19 -53 -21 -62 -12 -68 6 -4 10 6 10 20 0 15 5 35 11
47 6 11 9 22 6 24 -2 3 -9 -8 -15 -23z"/>
<path d="M4527 5083 c-13 -13 -7 -32 14 -44 17 -9 25 -8 38 6 15 16 15 17 -6
11 -25 -8 -42 12 -22 25 11 7 11 9 -2 9 -9 0 -19 -3 -22 -7z"/>
<path d="M4393 5072 c-17 -10 -33 -56 -24 -70 4 -8 11 -8 21 -1 11 8 12 12 3
16 -10 3 -10 10 -1 26 6 12 16 25 22 29 15 10 -5 10 -21 0z"/>
<path d="M2520 5064 c0 -13 18 -39 24 -34 2 3 -2 14 -10 24 -8 11 -14 16 -14
10z"/>
<path d="M4450 5051 c-12 -23 2 -61 22 -61 9 0 9 3 0 12 -18 18 -15 51 4 44
10 -4 14 -1 12 6 -7 21 -26 20 -38 -1z"/>
<path d="M6778 5044 c-16 -8 -28 -17 -28 -20 0 -3 5 -2 11 2 6 3 15 1 19 -6 6
-9 11 -7 20 10 15 28 11 31 -22 14z"/>
<path d="M6820 5036 c0 -2 6 -16 14 -31 9 -17 16 -22 19 -13 5 16 -10 48 -23
48 -6 0 -10 -2 -10 -4z"/>
<path d="M6710 5020 c-9 -6 -10 -10 -3 -10 6 0 15 5 18 10 8 12 4 12 -15 0z"/>
<path d="M2770 5011 c0 -5 7 -12 16 -15 14 -5 15 -4 4 9 -14 17 -20 19 -20 6z"/>
<path d="M6880 5010 c0 -5 5 -10 10 -10 6 0 10 5 10 10 0 6 -4 10 -10 10 -5 0
-10 -4 -10 -10z"/>
<path d="M4550 4917 c27 -53 50 -101 50 -107 0 -12 -55 -41 -64 -33 -3 4 -6 2
-6 -4 0 -5 -12 -15 -27 -22 -45 -20 -115 -62 -111 -67 5 -4 118 53 132 67 6 5
20 9 33 9 13 0 26 7 29 15 9 23 22 8 29 -35 4 -22 11 -40 15 -40 18 0 21 22 9
58 -7 20 -13 39 -14 42 -3 18 -90 179 -106 195 -11 11 3 -24 31 -78z"/>
<path d="M7230 4996 c0 -8 5 -18 10 -21 6 -3 10 3 10 14 0 12 -4 21 -10 21 -5
0 -10 -6 -10 -14z"/>
<path d="M6181 4986 c2 -2 27 -6 54 -10 34 -4 43 -3 30 3 -19 9 -93 15 -84 7z"/>
<path d="M6540 4954 c-23 -13 -61 -12 -108 3 -13 4 -14 3 -3 -5 7 -5 11 -14 7
-20 -4 -6 3 -8 16 -5 19 4 21 3 8 -7 -13 -10 -12 -11 3 -6 10 3 26 6 35 6 9 0
35 11 57 25 42 25 28 34 -15 9z"/>
<path d="M6850 4955 c12 -14 10 -19 -14 -42 -35 -32 -28 -39 15 -15 42 23 48
65 9 70 -21 4 -23 2 -10 -13z"/>
<path d="M2840 4955 c0 -10 23 -31 43 -38 24 -9 21 -4 -13 21 -16 13 -30 20
-30 17z"/>
<path d="M7265 4950 c-3 -5 -2 -17 3 -26 8 -14 10 -12 10 9 0 29 -3 33 -13 17z"/>
<path d="M3074 4938 c-3 -4 18 -8 45 -8 28 0 51 4 51 10 0 11 -89 9 -96 -2z"/>
<path d="M6115 4910 c-3 -5 -1 -10 4 -10 6 0 11 5 11 10 0 6 -2 10 -4 10 -3 0
-8 -4 -11 -10z"/>
<path d="M6290 4910 c18 -12 57 -13 64 -2 3 5 -14 9 -37 10 -31 2 -38 0 -27
-8z"/>
<path d="M7135 4890 c-3 -6 1 -7 9 -4 18 7 21 14 7 14 -6 0 -13 -4 -16 -10z"/>
<path d="M2890 4870 c6 -11 13 -20 16 -20 2 0 0 9 -6 20 -6 11 -13 20 -16 20
-2 0 0 -9 6 -20z"/>
<path d="M4818 4883 c-16 -2 -28 -8 -28 -12 0 -10 59 -1 66 10 3 5 2 8 -3 8
-4 -1 -20 -4 -35 -6z"/>
<path d="M4750 4860 c-8 -5 -10 -10 -5 -10 6 0 17 5 25 10 8 5 11 10 5 10 -5
0 -17 -5 -25 -10z"/>
<path d="M6857 4863 c-3 -5 -7 -30 -11 -58 -6 -46 -5 -48 9 -31 8 11 15 37 15
58 0 37 -4 46 -13 31z"/>
<path d="M7126 4862 c-2 -4 -1 -14 4 -22 7 -11 9 -9 7 8 -1 24 -3 26 -11 14z"/>
<path d="M7320 4859 c0 -5 5 -7 10 -4 6 3 10 8 10 11 0 2 -4 4 -10 4 -5 0 -10
-5 -10 -11z"/>
<path d="M7140 4771 c0 -12 5 -21 10 -21 6 0 10 6 10 14 0 8 -4 18 -10 21 -5
3 -10 -3 -10 -14z"/>
<path d="M7296 4735 c-3 -8 -1 -15 4 -15 6 0 10 7 10 15 0 8 -2 15 -4 15 -2 0
-6 -7 -10 -15z"/>
<path d="M7146 4727 c3 -10 9 -15 12 -12 3 3 0 11 -7 18 -10 9 -11 8 -5 -6z"/>
<path d="M7283 4685 c-13 -29 1 -34 17 -6 12 23 13 31 3 31 -5 0 -13 -11 -20
-25z"/>
<path d="M7142 4688 c-14 -14 -16 -28 -3 -28 9 0 24 30 18 36 -2 2 -9 -2 -15
-8z"/>
<path d="M4340 4660 c-14 -11 -20 -20 -14 -20 7 0 22 9 35 20 31 25 12 26 -21
0z"/>
<path d="M4215 4618 c-16 -12 -32 -25 -35 -28 -16 -17 -121 -89 -154 -106 -22
-10 -53 -32 -70 -47 -17 -16 -41 -33 -53 -38 -28 -11 -30 -29 -3 -29 11 0 20
6 20 13 0 24 129 107 131 83 0 -6 3 -4 7 6 4 9 34 36 67 60 59 44 134 108 125
108 -3 0 -18 -10 -35 -22z"/>
<path d="M7350 4619 c0 -5 5 -7 10 -4 6 3 10 8 10 11 0 2 -4 4 -10 4 -5 0 -10
-5 -10 -11z"/>
<path d="M7300 4609 c0 -5 5 -7 10 -4 6 3 10 8 10 11 0 2 -4 4 -10 4 -5 0 -10
-5 -10 -11z"/>
<path d="M7350 4572 c0 -17 4 -33 9 -37 6 -3 8 8 6 26 -6 43 -15 50 -15 11z"/>
<path d="M4240 4530 c0 -5 5 -10 11 -10 5 0 7 5 4 10 -3 6 -8 10 -11 10 -2 0
-4 -4 -4 -10z"/>
<path d="M4275 4510 l-30 -8 30 0 c17 0 39 3 50 8 l20 9 -20 -1 c-11 0 -33 -4
-50 -8z"/>
<path d="M4190 4465 c-24 -18 -36 -21 -41 -13 -4 7 -5 17 -2 23 4 5 2 6 -3 2
-5 -5 -9 -12 -9 -16 0 -12 -28 -36 -65 -54 -19 -9 -32 -17 -27 -17 4 0 -3 -10
-15 -22 -26 -26 -7 -39 20 -15 9 8 30 14 45 12 22 -3 27 0 23 13 -4 12 11 28
54 56 33 22 60 43 60 48 0 11 0 11 -40 -17z"/>
<path d="M4200 4440 c0 -5 5 -10 10 -10 6 0 10 5 10 10 0 6 -4 10 -10 10 -5 0
-10 -4 -10 -10z"/>
<path d="M3784 4379 c-3 -5 1 -9 8 -9 9 0 9 -3 -2 -10 -21 -14 -33 -12 -24 3
5 8 2 8 -9 -2 -25 -20 -21 -28 14 -23 21 3 40 -2 59 -17 16 -11 34 -21 40 -21
6 0 9 -4 6 -9 -10 -15 5 -40 20 -34 8 3 14 9 14 14 0 4 -6 6 -13 3 -9 -3 -13
5 -12 28 l1 33 53 -3 c37 -3 56 0 62 10 15 24 9 31 -13 16 -13 -8 -32 -13 -43
-12 -37 6 -60 11 -75 16 -8 3 -30 10 -47 16 -20 6 -35 7 -39 1z"/>
<path d="M4200 4340 c0 -6 7 -10 15 -10 8 0 15 2 15 4 0 2 -7 6 -15 10 -8 3
-15 1 -15 -4z"/>
<path d="M3170 4337 c0 -3 12 -12 26 -22 15 -9 23 -12 20 -6 -7 11 -46 35 -46
28z"/>
<path d="M3694 4308 l-19 -23 23 19 c12 11 22 21 22 23 0 8 -8 2 -26 -19z"/>
<path d="M3910 4326 c0 -2 7 -9 15 -16 9 -7 15 -8 15 -2 0 5 -7 12 -15 16 -8
3 -15 4 -15 2z"/>
<path d="M3264 4251 c-10 -51 -12 -201 -2 -201 4 0 8 36 8 79 l0 79 33 5 c74
13 97 20 97 27 0 5 -6 11 -12 13 -7 3 1 4 18 2 30 -3 101 -45 116 -68 4 -7 8
-8 8 -4 0 4 9 -1 21 -12 13 -12 18 -24 13 -33 -6 -11 -5 -11 8 0 13 10 17 10
22 -3 3 -9 10 -14 15 -11 5 3 25 -10 46 -30 47 -44 56 -39 12 7 -17 19 -38 47
-45 63 -8 18 -18 26 -27 22 -19 -7 -45 3 -45 16 0 6 7 5 15 -2 9 -7 17 -11 18
-9 1 2 9 13 17 23 14 18 13 19 -35 13 -46 -7 -55 -4 -105 28 -50 32 -61 35
-121 34 l-67 -1 -8 -37z m72 14 c-36 -19 -42 -19 -26 0 7 8 22 15 34 15 18 0
17 -2 -8 -15z m-46 -35 c0 -5 -4 -10 -10 -10 -5 0 -10 5 -10 10 0 6 5 10 10
10 6 0 10 -4 10 -10z"/>
<path d="M3660 4265 c-11 -13 -10 -14 4 -9 9 3 16 10 16 15 0 13 -6 11 -20 -6z"/>
<path d="M4030 4191 c0 -5 7 -12 16 -15 14 -5 15 -4 4 9 -14 17 -20 19 -20 6z"/>
<path d="M3236 4024 c-3 -9 -6 -34 -6 -56 0 -22 -7 -46 -15 -54 -8 -9 -15 -28
-15 -44 0 -22 4 -28 15 -24 8 4 15 1 15 -5 0 -6 7 -11 16 -11 10 0 14 -6 11
-14 -4 -9 2 -17 13 -21 11 -3 19 -9 19 -13 -4 -22 3 -31 18 -25 12 5 14 3 8
-7 -5 -8 -4 -11 2 -7 6 4 25 -7 42 -25 17 -17 31 -27 31 -20 0 6 -16 27 -35
46 -19 20 -35 40 -35 46 0 5 -5 10 -10 10 -9 0 -26 30 -36 65 -2 6 -10 28 -18
50 -9 25 -12 56 -9 83 6 42 0 55 -11 26z"/>
<path d="M3980 4000 c0 -5 5 -10 11 -10 5 0 7 5 4 10 -3 6 -8 10 -11 10 -2 0
-4 -4 -4 -10z"/>
<path d="M2000 3933 c0 -21 3 -24 9 -14 5 8 7 20 4 28 -8 21 -13 15 -13 -14z"/>
<path d="M2030 3943 c0 -4 14 -24 31 -43 23 -27 28 -29 18 -10 -12 27 -49 66
-49 53z"/>
<path d="M2283 3935 c-3 -9 -3 -18 -1 -21 3 -3 8 4 11 16 6 23 -1 27 -10 5z"/>
<path d="M2234 3925 c-10 -8 -14 -15 -8 -15 6 0 17 7 24 15 16 19 9 19 -16 0z"/>
<path d="M3761 3903 c7 -12 15 -20 18 -17 3 2 -3 12 -13 22 -17 16 -18 16 -5
-5z"/>
<path d="M2265 3890 c-3 -5 -1 -10 4 -10 6 0 11 5 11 10 0 6 -2 10 -4 10 -3 0
-8 -4 -11 -10z"/>
<path d="M2226 3846 c-18 -28 -22 -66 -6 -66 5 0 7 7 4 15 -4 8 1 27 11 41 9
14 15 28 12 30 -2 3 -12 -7 -21 -20z"/>
<path d="M3810 3846 c0 -2 8 -10 18 -17 15 -13 16 -12 3 4 -13 16 -21 21 -21
13z"/>
<path d="M3193 3776 c4 -37 1 -58 -7 -65 -6 -5 -13 -27 -14 -47 -3 -43 -10
-57 -23 -49 -5 4 -9 1 -9 -5 0 -7 7 -10 15 -6 12 4 15 -3 15 -35 0 -37 -2 -40
-22 -33 -13 3 -27 13 -31 20 -13 23 -26 16 -42 -22 -20 -49 -18 -57 4 -15 14
26 19 30 24 17 4 -9 16 -16 28 -16 11 0 19 -3 17 -7 -2 -5 -12 -26 -22 -48
-10 -22 -25 -53 -33 -68 -8 -16 -12 -31 -9 -34 3 -3 20 24 37 61 19 40 40 71
52 75 14 5 17 10 9 15 -7 4 -10 11 -7 16 3 5 7 40 8 79 2 38 9 76 16 85 14 17
12 136 -3 136 -5 0 -6 -24 -3 -54z"/>
<path d="M1980 3764 c-19 -25 -35 -54 -34 -64 0 -11 -5 -20 -12 -20 -6 0 -15
-8 -19 -17 -5 -15 -4 -16 6 -5 7 6 23 12 36 12 13 0 23 5 23 10 0 6 -7 10 -15
10 -23 0 -19 12 21 64 21 25 35 48 33 50 -2 2 -20 -16 -39 -40z"/>
<path d="M2149 3723 c-5 -15 -9 -36 -7 -47 2 -13 7 -2 14 27 12 52 9 62 -7 20z"/>
<path d="M2220 3710 c0 -11 4 -20 8 -20 4 0 8 9 8 20 0 11 -4 20 -8 20 -4 0
-8 -9 -8 -20z"/>
<path d="M2026 3711 c-4 -5 3 -7 14 -4 23 6 26 13 6 13 -8 0 -17 -4 -20 -9z"/>
<path d="M3226 3695 c4 -8 10 -15 14 -15 5 0 10 -10 12 -22 3 -22 49 -53 68
-46 11 4 -30 88 -43 88 -5 0 -4 -7 3 -15 7 -8 8 -15 3 -15 -5 0 -16 9 -26 20
-20 23 -39 27 -31 5z"/>
<path d="M2117 3644 c3 -7 9 -14 14 -14 14 0 10 17 -5 23 -10 4 -13 1 -9 -9z"/>
<path d="M3035 3510 c-3 -5 -8 -22 -9 -38 -2 -15 -16 -53 -30 -83 -15 -29 -30
-74 -33 -98 -4 -31 -17 -56 -40 -81 -18 -21 -33 -41 -33 -45 0 -12 80 76 81
89 3 51 23 91 40 80 5 -3 9 0 9 5 0 6 -4 11 -9 11 -12 0 4 51 31 98 10 17 13
32 7 32 -6 0 -8 9 -4 20 7 21 1 27 -10 10z"/>
<path d="M3264 3351 c20 -22 26 -25 26 -13 0 4 -10 13 -22 21 -23 14 -23 14
-4 -8z"/>
<path d="M3054 3332 c-11 -7 -4 -44 9 -43 4 0 14 -2 22 -6 9 -3 19 -2 22 1 4
4 -3 9 -15 13 -20 5 -26 15 -23 36 1 9 -1 9 -15 -1z"/>
<path d="M629 3314 c-1 -5 0 -19 1 -31 1 -18 -4 -23 -24 -23 -30 0 -66 -32
-66 -58 0 -10 7 -28 16 -40 12 -18 23 -22 51 -19 l36 4 -2 84 c-1 46 -4 86 -7
88 -2 2 -4 0 -5 -5z m-11 -76 c17 -17 15 -63 -2 -77 -11 -9 -20 -10 -35 -1
-35 18 -23 90 14 90 6 0 16 -5 23 -12z"/>
<path d="M1307 3313 c-4 -3 -7 -17 -7 -30 0 -16 -6 -23 -20 -23 -27 0 -60 -35
-60 -63 0 -35 30 -58 70 -54 l33 4 -2 84 c-2 88 -3 93 -14 82z m-9 -107 c4
-47 -8 -62 -37 -47 -37 21 -21 96 19 89 10 -2 16 -17 18 -42z"/>
<path d="M243 3293 l29 -4 -4 -75 c-2 -46 1 -74 7 -74 7 0 9 28 7 75 -4 75 -4
75 21 75 14 0 28 -6 30 -12 3 -8 6 -6 6 5 1 15 -8 17 -61 16 -35 -1 -50 -4
-35 -6z"/>
<path d="M945 3290 c-4 -6 9 -10 31 -10 42 0 42 4 2 14 -15 3 -30 2 -33 -4z"/>
<path d="M355 3200 c0 -34 4 -60 10 -60 6 0 9 19 7 46 -4 39 -1 46 17 51 12 3
21 9 21 15 0 5 -9 4 -20 -2 -14 -7 -20 -7 -20 0 0 5 -3 10 -7 10 -5 0 -8 -27
-8 -60z"/>
<path d="M473 3249 c12 -7 17 -23 17 -59 0 -39 4 -50 16 -50 9 0 12 5 8 12 -5
7 -7 28 -5 46 3 36 -13 62 -38 62 -14 -1 -14 -2 2 -11z"/>
<path d="M690 3205 c0 -61 13 -75 49 -55 14 7 21 7 21 0 0 -5 5 -10 10 -10 6
0 10 27 10 60 0 33 -4 60 -10 60 -5 0 -10 -20 -10 -45 0 -33 -5 -47 -19 -54
-26 -14 -31 -5 -31 51 0 26 -4 48 -10 48 -5 0 -10 -25 -10 -55z"/>
<path d="M836 3244 c-27 -27 -20 -74 17 -105 27 -24 30 -30 17 -39 -11 -7 -11
-10 -2 -10 17 0 29 33 14 38 -8 2 -3 11 10 22 l23 18 -28 -5 c-15 -3 -34 0
-42 7 -18 15 -20 51 -3 68 17 17 48 15 48 -3 0 -8 5 -15 10 -15 14 0 13 13 -2
28 -17 17 -44 15 -62 -4z"/>
<path d="M945 3240 c-10 -11 -13 -20 -8 -20 6 0 14 7 17 16 11 30 31 7 36 -41
3 -27 10 -50 15 -52 7 -2 8 18 5 54 -4 49 -8 58 -26 61 -11 2 -28 -6 -39 -18z"/>
<path d="M1074 3252 c-6 -4 -16 -17 -23 -29 -27 -52 37 -106 79 -68 48 43 -4
132 -56 97z m51 -52 c0 -39 -3 -45 -22 -48 -16 -2 -26 4 -35 22 -16 37 3 79
35 74 19 -3 22 -9 22 -48z"/>
<path d="M1377 3242 c-22 -24 -21 -65 1 -85 22 -20 46 -22 60 -4 8 9 3 12 -21
12 -26 0 -33 5 -35 23 -3 19 1 22 32 22 29 0 36 4 36 19 0 33 -47 42 -73 13z
m61 -9 c2 -9 -7 -13 -27 -13 -30 0 -39 9 -24 24 11 10 46 3 51 -11z"/>
<path d="M436 3241 c-4 -7 -5 -15 -2 -18 9 -9 19 4 14 18 -4 11 -6 11 -12 0z"/>
<path d="M434 3175 c-11 -29 26 -50 42 -23 4 7 3 8 -4 4 -22 -13 -37 6 -17 21
17 12 17 13 2 13 -10 0 -20 -7 -23 -15z"/>
<path d="M934 3175 c-11 -28 25 -50 41 -25 3 6 -1 7 -9 4 -10 -4 -16 -1 -16 9
0 8 6 18 13 20 7 3 5 6 -6 6 -10 1 -20 -6 -23 -14z"/>
<path d="M5150 3145 c-29 -36 19 -70 53 -37 17 17 18 23 7 36 -16 20 -44 20
-60 1z"/>
<path d="M2880 3136 c0 -9 5 -16 10 -16 6 0 10 4 10 9 0 6 -4 13 -10 16 -5 3
-10 -1 -10 -9z"/>
<path d="M5387 3144 c-3 -4 -25 -6 -49 -6 -43 1 -78 -19 -78 -44 0 -19 18 -26
37 -15 17 10 16 10 -2 11 -11 1 18 14 65 30 49 17 74 29 59 30 -14 0 -28 -3
-32 -6z"/>
<path d="M5461 3128 c8 -7 26 -22 40 -33 14 -11 30 -29 37 -40 6 -11 12 -15
12 -8 0 16 -50 68 -80 82 -21 10 -22 10 -9 -1z"/>
<path d="M2856 3077 c-21 -37 -41 -85 -30 -74 4 3 12 15 18 26 37 64 46 81 39
81 -5 0 -16 -15 -27 -33z"/>
<path d="M5197 3073 c-15 -14 -6 -44 16 -52 18 -7 24 -4 35 15 7 14 10 29 7
34 -7 11 -48 13 -58 3z"/>
<path d="M5281 3029 c-12 -27 -11 -33 3 -47 15 -15 17 -15 31 3 18 25 19 55 1
55 -8 0 -16 5 -18 10 -2 6 -9 -4 -17 -21z"/>
<path d="M5088 3008 c-38 -27 -37 -58 1 -58 32 0 66 25 75 55 5 16 1 20 -22
22 -15 1 -39 -7 -54 -19z"/>
<path d="M5501 3014 c0 -11 3 -14 6 -6 3 7 2 16 -1 19 -3 4 -6 -2 -5 -13z"/>
<path d="M5552 2993 c-1 -26 1 -33 7 -24 5 8 8 23 5 34 -6 33 -11 29 -12 -10z"/>
<path d="M5184 2976 c-9 -37 -1 -61 22 -64 27 -4 58 57 38 76 -22 21 -53 14
-60 -12z"/>
<path d="M2751 2868 c-34 -68 -55 -114 -47 -103 9 11 19 25 23 31 17 23 43 76
43 89 0 8 7 21 16 29 13 14 38 76 30 76 -2 0 -31 -55 -65 -122z"/>
<path d="M1238 2943 c7 -3 16 -2 19 1 4 3 -2 6 -13 5 -11 0 -14 -3 -6 -6z"/>
<path d="M1353 2943 c9 -2 25 -2 35 0 9 3 1 5 -18 5 -19 0 -27 -2 -17 -5z"/>
<path d="M5486 2933 c-9 -9 -7 -33 3 -33 12 0 22 28 12 34 -5 3 -11 3 -15 -1z"/>
<path d="M582 2875 c0 -16 2 -22 5 -12 2 9 2 23 0 30 -3 6 -5 -1 -5 -18z"/>
<path d="M741 2844 c0 -11 3 -14 6 -6 3 7 2 16 -1 19 -3 4 -6 -2 -5 -13z"/>
<path d="M458 2803 c7 -3 16 -2 19 1 4 3 -2 6 -13 5 -11 0 -14 -3 -6 -6z"/>
<path d="M2645 2600 c-3 -5 -1 -10 4 -10 6 0 11 5 11 10 0 6 -2 10 -4 10 -3 0
-8 -4 -11 -10z"/>
<path d="M2636 2545 c-3 -9 -6 -26 -5 -38 1 -14 4 -9 9 13 9 37 7 52 -4 25z"/>
<path d="M596 2461 c-19 -21 -29 -151 -11 -151 6 0 10 28 9 67 -1 52 3 70 18
85 10 10 14 18 10 18 -5 0 -17 -9 -26 -19z"/>
<path d="M1198 2450 c3 -20 0 -30 -8 -30 -10 0 -10 -3 -1 -14 7 -8 11 -30 9
-48 -2 -25 -8 -34 -25 -36 -32 -5 -51 37 -34 76 l11 27 -20 -24 c-24 -28 -25
-40 -5 -68 12 -18 25 -22 60 -21 37 0 43 3 34 14 -6 8 -9 42 -7 84 2 45 -1 70
-8 70 -6 0 -9 -13 -6 -30z"/>
<path d="M2621 2464 c0 -11 3 -14 6 -6 3 7 2 16 -1 19 -3 4 -6 -2 -5 -13z"/>
<path d="M235 2390 c0 -57 4 -80 13 -80 8 0 12 22 12 75 0 66 2 75 18 75 42 0
58 -54 20 -70 -17 -6 -18 -9 -6 -9 19 -1 48 25 48 43 0 23 -36 46 -71 46 l-34
0 0 -80z"/>
<path d="M686 2454 c-5 -14 -4 -15 9 -4 17 14 19 20 6 20 -5 0 -12 -7 -15 -16z"/>
<path d="M880 2460 c0 -5 7 -10 15 -10 8 0 15 5 15 10 0 6 -7 10 -15 10 -8 0
-15 -4 -15 -10z"/>
<path d="M375 2363 c0 -30 4 -53 10 -53 7 0 9 15 7 36 -4 30 0 40 18 54 l22
17 -28 0 c-28 0 -29 -2 -29 -54z"/>
<path d="M462 2408 c-7 -7 -12 -26 -12 -43 0 -17 5 -36 12 -43 15 -15 48 -15
68 -2 11 8 8 9 -11 5 -20 -5 -30 -1 -42 15 -15 22 -12 60 7 72 7 5 8 8 1 8 -6
0 -16 -5 -23 -12z"/>
<path d="M517 2401 c3 -12 10 -21 15 -21 13 0 6 32 -9 37 -7 3 -9 -3 -6 -16z"/>
<path d="M650 2405 c-7 -9 -8 -15 -2 -15 5 0 12 7 16 15 3 8 4 15 2 15 -2 0
-9 -7 -16 -15z"/>
<path d="M688 2414 c19 -9 15 -52 -5 -57 -16 -4 -16 -5 0 -6 22 -1 17 -25 -6
-29 -10 -2 -17 3 -17 12 0 9 -5 16 -11 16 -6 0 -9 -8 -7 -17 2 -13 14 -18 43
-20 l40 -2 -5 52 c-4 42 -9 52 -25 54 -11 2 -14 0 -7 -3z"/>
<path d="M763 2394 c-15 -24 -15 -29 -2 -53 18 -32 60 -40 80 -14 13 16 12 17
-3 5 -39 -30 -87 26 -59 70 18 28 4 21 -16 -8z"/>
<path d="M826 2406 c3 -9 11 -16 16 -16 13 0 5 23 -10 28 -7 2 -10 -2 -6 -12z"/>
<path d="M885 2365 c0 -30 5 -55 10 -55 6 0 9 23 7 55 -5 71 -17 71 -17 0z"/>
<path d="M950 2405 c-23 -28 -8 -95 21 -95 5 0 2 12 -8 26 -13 21 -15 32 -6
55 13 33 11 36 -7 14z"/>
<path d="M1008 2408 c16 -16 16 -70 0 -86 -7 -7 -9 -12 -6 -12 4 0 14 7 22 16
28 28 15 94 -18 94 -6 0 -5 -5 2 -12z"/>
<path d="M1263 2394 c-15 -24 -15 -29 -2 -53 15 -27 54 -40 72 -22 7 7 3 8
-12 4 -11 -3 -28 0 -36 7 -18 15 -20 61 -3 78 7 7 9 12 5 12 -3 0 -14 -12 -24
-26z"/>
<path d="M1327 2400 c3 -11 9 -20 14 -20 11 0 11 3 3 24 -9 23 -23 20 -17 -4z"/>
<path d="M2592 2340 c0 -14 2 -19 5 -12 2 6 2 18 0 25 -3 6 -5 1 -5 -13z"/>
<path d="M2575 2243 c-3 -38 -13 -95 -21 -129 -16 -70 -17 -85 -4 -64 5 8 10
25 10 37 0 12 4 23 9 25 10 3 27 198 18 198 -3 0 -8 -30 -12 -67z"/>
<path d="M752 2140 c0 -14 2 -19 5 -12 2 6 2 18 0 25 -3 6 -5 1 -5 -13z"/>
<path d="M5942 2149 c-41 -16 -51 -90 -14 -104 17 -6 52 27 52 49 0 6 -9 0
-20 -14 -16 -20 -19 -21 -13 -5 3 11 13 30 21 43 18 28 6 43 -26 31z"/>
<path d="M6052 2077 c-20 -21 -30 -57 -16 -57 14 0 51 24 66 44 10 11 18 16
18 9 0 -6 -15 -23 -32 -37 -38 -30 -35 -33 10 -10 33 16 41 41 20 62 -18 18
-42 14 -66 -11z"/>
<path d="M341 2074 c0 -11 3 -14 6 -6 3 7 2 16 -1 19 -3 4 -6 -2 -5 -13z"/>
<path d="M838 2083 c7 -3 16 -2 19 1 4 3 -2 6 -13 5 -11 0 -14 -3 -6 -6z"/>
<path d="M1228 2083 c7 -3 16 -2 19 1 4 3 -2 6 -13 5 -11 0 -14 -3 -6 -6z"/>
<path d="M451 2054 c0 -11 3 -14 6 -6 3 7 2 16 -1 19 -3 4 -6 -2 -5 -13z"/>
<path d="M5814 2045 c-29 -12 -51 -41 -40 -53 16 -15 73 -17 99 -3 34 19 34
25 -1 49 -24 18 -31 19 -58 7z"/>
<path d="M5960 2031 c0 -5 -9 -13 -21 -16 -25 -8 -23 -52 3 -69 13 -8 24 -6
45 10 39 29 40 50 4 69 -17 8 -31 11 -31 6z m40 -46 c-7 -8 -17 -15 -22 -15
-11 0 14 29 26 30 5 0 3 -7 -4 -15z"/>
<path d="M841 2014 c0 -11 3 -14 6 -6 3 7 2 16 -1 19 -3 4 -6 -2 -5 -13z"/>
<path d="M5840 1951 c-22 -19 -34 -38 -35 -58 -2 -29 0 -30 29 -23 35 8 108
50 88 50 -8 0 -12 5 -10 12 4 10 -25 48 -36 48 -2 0 -18 -13 -36 -29z m50 -41
c0 -5 -5 -10 -11 -10 -5 0 -7 5 -4 10 3 6 8 10 11 10 2 0 4 -4 4 -10z"/>
<path d="M6026 1963 c-3 -4 -6 -19 -6 -34 0 -21 7 -29 32 -38 26 -9 35 -8 50
5 10 10 18 21 18 25 0 20 -80 56 -94 42z m65 -56 c-7 -7 -18 -7 -33 0 -22 10
-21 11 10 10 22 0 30 -3 23 -10z"/>
<path d="M5934 1894 c-9 -36 16 -87 36 -74 12 8 13 12 2 19 -11 6 -9 10 7 14
12 3 21 10 21 17 0 6 -4 9 -9 5 -5 -3 -12 -1 -16 5 -3 5 -2 10 4 10 6 0 8 7 5
15 -10 25 -43 18 -50 -11z"/>
<path d="M1312 1880 c0 -14 2 -19 5 -12 2 6 2 18 0 25 -3 6 -5 1 -5 -13z"/>
<path d="M2524 1750 c0 -58 1 -81 3 -52 2 28 2 76 0 105 -2 28 -3 5 -3 -53z"/>
<path d="M2220 1711 c0 -5 6 -14 14 -20 12 -10 13 -8 9 8 -5 21 -23 30 -23 12z"/>
<path d="M2335 1570 c9 -17 20 -28 25 -25 6 4 10 1 10 -5 0 -6 10 -15 23 -21
12 -5 33 -26 46 -45 19 -27 22 -43 18 -75 -4 -33 -3 -38 8 -29 8 6 15 26 17
43 l3 32 21 -36 c25 -42 52 -52 90 -33 30 16 104 19 104 4 0 -12 -35 -31 -44
-23 -3 3 -6 1 -6 -5 0 -6 -7 -9 -15 -6 -10 4 -15 0 -15 -11 0 -11 5 -15 15
-11 8 3 22 9 30 12 8 3 15 1 15 -5 0 -7 10 -5 24 6 13 10 22 21 19 26 -2 4 1
7 6 7 6 0 11 -8 11 -17 0 -15 2 -16 10 -3 5 8 10 11 10 7 0 -4 10 -3 21 4 15
8 19 8 15 0 -4 -6 0 -11 9 -11 9 0 30 -14 47 -32 29 -30 31 -31 23 -8 -4 14
-9 50 -10 80 -1 30 -6 66 -10 79 -5 16 -5 22 2 18 6 -4 8 3 6 18 -8 39 -41 28
-48 -16 -5 -28 -13 -39 -39 -52 -21 -9 -38 -12 -47 -6 -20 13 -29 11 -29 -6 0
-10 -11 -14 -39 -12 -21 1 -45 -4 -53 -10 -12 -10 -19 -9 -35 7 -12 10 -23 17
-26 14 -2 -3 -8 10 -12 28 -7 31 -8 31 -14 9 l-6 -23 -25 24 c-14 13 -53 46
-87 73 -35 26 -63 52 -63 56 0 5 -5 9 -10 9 -6 0 -4 -13 5 -30z m515 -70 c0
-5 -4 -10 -10 -10 -5 0 -10 5 -10 10 0 6 5 10 10 10 6 0 10 -4 10 -10z m-22
-80 c-14 -22 -68 -45 -68 -29 0 6 -7 6 -20 -1 -11 -6 -20 -7 -20 -2 0 6 84 43
118 51 1 1 -3 -8 -10 -19z"/>
<path d="M2812 1560 c0 -14 2 -19 5 -12 2 6 2 18 0 25 -3 6 -5 1 -5 -13z"/>
<path d="M2522 1527 c0 -26 3 -36 10 -29 7 7 7 20 0 39 -9 28 -9 27 -10 -10z"/>
<path d="M2445 1339 c-22 -10 -44 -20 -50 -22 -5 -3 -8 -7 -5 -10 3 -3 23 3
44 14 37 18 40 18 52 1 14 -18 17 -8 6 19 -6 14 -11 14 -47 -2z"/>
<path d="M2548 1313 c-15 -10 -32 -31 -38 -47 -15 -42 -13 -43 13 -5 12 19 38
42 57 51 25 12 29 17 15 17 -11 0 -32 -7 -47 -16z"/>
<path d="M2466 1222 c-10 -42 -24 -89 -32 -104 -8 -14 -14 -32 -13 -40 0 -7 5
-2 11 12 6 15 12 20 15 13 7 -18 25 3 40 45 14 39 9 42 -11 5 -8 -16 -15 -23
-15 -18 0 13 25 116 34 136 3 10 2 19 -2 22 -5 3 -17 -29 -27 -71z"/>
<path d="M2315 1280 c-4 -6 -15 -8 -24 -5 -10 3 -25 -3 -34 -13 -15 -16 -15
-19 -2 -19 8 0 15 6 15 14 0 7 5 13 11 13 5 0 7 -4 4 -10 -11 -18 11 -10 30
10 10 11 15 20 12 20 -3 0 -9 -5 -12 -10z"/>
<path d="M950 1261 c0 -6 4 -13 10 -16 6 -3 7 1 4 9 -7 18 -14 21 -14 7z"/>
<path d="M2181 1223 c7 -12 15 -20 18 -17 3 2 -3 12 -13 22 -17 16 -18 16 -5
-5z"/>
<path d="M1165 1210 c-16 -7 -17 -9 -3 -9 9 -1 20 4 23 9 7 11 7 11 -20 0z"/>
<path d="M962 1170 c0 -14 2 -19 5 -12 2 6 2 18 0 25 -3 6 -5 1 -5 -13z"/>
<path d="M1132 1154 c-12 -19 -19 -34 -14 -34 9 0 46 59 40 65 -2 2 -13 -12
-26 -31z"/>
<path d="M1040 1170 c0 -5 5 -10 11 -10 5 0 7 5 4 10 -3 6 -8 10 -11 10 -2 0
-4 -4 -4 -10z"/>
<path d="M2156 1145 c-3 -8 -1 -15 3 -15 5 0 11 7 15 15 3 8 1 15 -3 15 -5 0
-11 -7 -15 -15z"/>
<path d="M2394 1138 l-19 -23 23 19 c21 18 27 26 19 26 -2 0 -12 -10 -23 -22z"/>
<path d="M2560 1135 c0 -5 5 -17 10 -25 5 -8 10 -10 10 -5 0 6 -5 17 -10 25
-5 8 -10 11 -10 5z"/>
<path d="M921 1062 c-17 -31 -13 -40 5 -14 9 13 14 26 11 29 -3 2 -10 -4 -16
-15z"/>
<path d="M1175 1060 c-4 -6 3 -10 14 -10 25 0 27 6 6 13 -8 4 -17 2 -20 -3z"/>
<path d="M1090 1050 c0 -5 12 -10 28 -10 21 0 24 2 12 10 -20 13 -40 13 -40 0z"/>
<path d="M2413 1025 c0 -22 2 -30 4 -17 2 12 2 30 0 40 -3 9 -5 -1 -4 -23z"/>
<path d="M939 1008 l-34 -30 32 21 c39 26 42 26 53 -1 9 -22 9 -22 9 3 1 39
-22 42 -60 7z"/>
<path d="M2595 1031 c-3 -5 -1 -12 5 -16 5 -3 10 1 10 9 0 18 -6 21 -15 7z"/>
<path d="M2610 994 c0 -15 48 -151 49 -138 1 12 -38 136 -45 143 -2 2 -4 0 -4
-5z"/>
<path d="M870 965 c-8 -9 -8 -15 -2 -15 12 0 26 19 19 26 -2 2 -10 -2 -17 -11z"/>
<path d="M2386 963 c-6 -14 -5 -15 5 -6 7 7 10 15 7 18 -3 3 -9 -2 -12 -12z"/>
<path d="M1001 954 c0 -11 3 -14 6 -6 3 7 2 16 -1 19 -3 4 -6 -2 -5 -13z"/>
<path d="M1005 918 c15 -52 16 -53 25 -38 11 17 13 37 3 27 -3 -4 -12 1 -20
11 -12 16 -13 16 -8 0z"/>
<path d="M2860 373 c0 -4 9 -22 19 -40 11 -17 29 -60 39 -95 11 -34 30 -87 41
-117 16 -39 19 -57 11 -66 -9 -11 -7 -12 9 -8 25 6 25 1 0 60 -12 26 -31 83
-44 125 -13 42 -29 87 -36 100 -14 27 -39 53 -39 41z"/>
<path d="M1881 188 c-28 -29 -49 -52 -48 -53 1 0 13 -9 26 -20 l24 -20 -12 24
c-11 20 -10 26 11 50 77 85 76 99 -1 19z"/>
<path d="M1685 220 c3 -5 11 -10 16 -10 6 0 7 5 4 10 -3 6 -11 10 -16 10 -6 0
-7 -4 -4 -10z"/>
<path d="M1860 210 c-9 -6 -10 -10 -3 -10 6 0 15 5 18 10 8 12 4 12 -15 0z"/>
<path d="M1747 181 c7 -26 18 -26 63 0 19 11 26 17 15 13 -46 -15 -56 -16 -69
-5 -12 10 -13 8 -9 -8z"/>
<path d="M1681 132 c-1 -12 -10 -41 -22 -63 -11 -23 -18 -43 -15 -46 3 -3 11
7 18 23 6 16 18 36 25 45 10 12 11 23 4 40 l-10 24 0 -23z"/>
<path d="M1931 26 c-9 -10 -9 -16 -1 -21 17 -10 37 12 24 25 -8 8 -15 6 -23
-4z"/>
<path d="M1714 15 c-10 -8 -14 -14 -9 -15 15 0 40 18 34 24 -3 3 -14 -1 -25
-9z"/>
</g>
</svg>
